<svg width="404" height="207" viewBox="0 0 404 207" fill="none" xmlns="http://www.w3.org/2000/svg">
<mask id="mask0_137_227" style="mask-type:luminance" maskUnits="userSpaceOnUse" x="27" y="0" width="33" height="49">
<path d="M27.729 0H59.729V48.7969H27.729V0Z" fill="white"/>
</mask>
<g mask="url(#mask0_137_227)">
<path d="M40.9324 16.8593L54.3751 46.453C70.8126 11.1926 34.6251 0.00512695 34.6251 0.00512695L34.6563 0.083252C33.9636 1.22388 15.3959 32.3593 49.9376 47.9843L40.9324 16.8593Z" fill="#ADFF2F"/>
</g>
<path d="M18.9528 52.9896L43.4788 57.3542C20.4215 76.25 5.23926 51.5104 5.23926 51.5104L5.30697 51.5208C6.02051 50.7864 25.6091 31.0885 43.7705 53.7656L18.9528 52.9896Z" fill="#ADFF2F"/>
<path d="M62.3488 59.3021C62.3488 62.7917 59.5207 65.6198 56.0311 65.6198C52.5415 65.6198 49.7134 62.7917 49.7134 59.3021C49.7134 55.8125 52.5415 52.9844 56.0311 52.9844C59.5207 52.9844 62.3488 55.8125 62.3488 59.3021Z" fill="#ADFF2F"/>
<mask id="mask1_137_227" style="mask-type:luminance" maskUnits="userSpaceOnUse" x="0" y="30" width="14" height="14">
<path d="M0 30.1304H13.0625V43.4637H0V30.1304Z" fill="white"/>
</mask>
<g mask="url(#mask1_137_227)">
<path d="M6.41683 43.4586C2.92725 43.4586 0.0991211 40.6305 0.0991211 37.1461C0.0991211 33.6565 2.92725 30.8284 6.41683 30.8284C9.90641 30.8284 12.7345 33.6565 12.7345 37.1461C12.7345 40.6305 9.90641 43.4586 6.41683 43.4586Z" fill="#ADFF2F"/>
</g>
<path d="M67.6094 11.1824C69.4948 13.0678 69.4948 16.1251 67.6094 18.0105C65.724 19.8959 62.6667 19.8959 60.7812 18.0105C58.8958 16.1251 58.8958 13.0678 60.7812 11.1824C62.6667 9.29696 65.724 9.29696 67.6094 11.1824Z" fill="#ADFF2F"/>
<path d="M26.229 30.5261C27.1144 31.4115 27.1144 32.8542 26.229 33.7397C25.3384 34.6303 23.8957 34.6303 23.0103 33.7397C22.1196 32.8542 22.1196 31.4115 23.0103 30.5261C23.8957 29.6355 25.3384 29.6355 26.229 30.5261Z" fill="#ADFF2F"/>
<path d="M13.0675 66.9585C14.7134 66.9585 16.0467 68.2918 16.0467 69.9377C16.0467 71.5887 14.7134 72.922 13.0675 72.922C11.4217 72.922 10.0884 71.5887 10.0884 69.9377C10.0884 68.2918 11.4217 66.9585 13.0675 66.9585Z" fill="#ADFF2F"/>
<path d="M131.651 190.391C131.63 190.323 131.604 190.255 131.583 190.188C129.911 185.037 124.666 181.86 119.359 182.912C93.4946 188.011 68.9998 179 52.2446 162.245C35.4894 145.49 26.479 120.995 31.5779 95.1303C32.6248 89.8178 29.4529 84.5783 24.3019 82.9064C24.2342 82.8803 24.1665 82.8595 24.0936 82.8387C17.9738 80.8491 11.4373 84.6199 10.1873 90.9376C3.5571 124.354 15.1925 156.011 36.8331 177.651C58.479 199.297 90.1352 210.932 123.552 204.302C129.87 203.047 133.64 196.516 131.651 190.391Z" fill="#A0CFD3"/>
<path d="M174.641 39.8439C153 18.2033 121.344 6.56784 87.9271 13.198C81.6094 14.448 77.8386 20.9793 79.8282 27.1043C79.849 27.1772 79.8699 27.2449 79.8959 27.3126C81.5678 32.4637 86.8074 35.6355 92.1199 34.5887C117.984 29.4897 142.479 38.5001 159.234 55.2553C175.99 72.0053 185 96.5053 179.901 122.37C178.849 127.677 182.026 132.922 187.177 134.594C187.245 134.615 187.313 134.641 187.38 134.662C193.505 136.651 200.037 132.88 201.292 126.563C207.922 93.146 196.287 61.4897 174.641 39.8439Z" fill="#ADFF2F"/>
<path d="M156.76 93.7085C153.536 91.2033 149.49 89.7085 145.089 89.7085C134.573 89.7085 126.047 98.2345 126.047 108.75C126.047 113.151 127.542 117.198 130.052 120.422L156.76 93.7085Z" fill="#ADFF2F"/>
<path d="M160.125 97.0784L133.417 123.787C136.64 126.292 140.687 127.792 145.088 127.792C155.604 127.792 164.13 119.266 164.13 108.75C164.13 104.349 162.635 100.302 160.125 97.0784Z" fill="#A0CFD3"/>
<path d="M124.317 129.521C118.771 123.969 115.713 116.599 115.713 108.75C115.713 100.901 118.771 93.526 124.317 87.9792C124.468 87.8229 124.625 87.6823 124.781 87.5313V69.401C124.781 58.8854 116.255 50.3594 105.739 50.3594C95.2236 50.3594 86.6976 58.8854 86.6976 69.401V89.7083H66.3903C55.8747 89.7083 47.3486 98.2344 47.3486 108.75C47.3486 119.266 55.8747 127.792 66.3903 127.792H86.6976V148.099C86.6976 158.615 95.2236 167.141 105.739 167.141C116.255 167.141 124.781 158.615 124.781 148.099V129.964C124.625 129.818 124.468 129.672 124.317 129.521Z" fill="#A0CFD3"/>
<path d="M93.5989 65.4012C94.8645 61.5679 97.9009 58.5314 101.739 57.2606C102.349 57.0627 102.766 56.4949 102.766 55.8543V55.8439C102.766 54.8335 101.771 54.1043 100.807 54.4272C96.078 55.9897 92.328 59.7345 90.7655 64.4689C90.4478 65.4324 91.1718 66.422 92.1874 66.422C92.828 66.422 93.3957 66.0106 93.5989 65.4012Z" fill="white"/>
<path d="M62.3904 120.734C58.557 119.468 55.5206 116.432 54.2497 112.588C54.0518 111.979 53.4841 111.567 52.8435 111.567H52.8383C51.8227 111.567 51.0987 112.562 51.4164 113.521C52.9789 118.255 56.7237 122 61.4581 123.562C62.4216 123.88 63.4164 123.156 63.4164 122.146C63.4164 121.5 62.9997 120.937 62.3904 120.734Z" fill="white"/>
<mask id="mask2_137_227" style="mask-type:luminance" maskUnits="userSpaceOnUse" x="153" y="170" width="30" height="29">
<path d="M153.917 170.058H182.557V198.698H153.917V170.058Z" fill="white"/>
</mask>
<g mask="url(#mask2_137_227)">
<mask id="mask3_137_227" style="mask-type:luminance" maskUnits="userSpaceOnUse" x="153" y="170" width="30" height="29">
<path d="M168.234 170.058C160.328 170.058 153.917 176.469 153.917 184.375C153.917 192.287 160.328 198.698 168.234 198.698C176.146 198.698 182.557 192.287 182.557 184.375C182.557 176.469 176.146 170.058 168.234 170.058Z" fill="white"/>
</mask>
<g mask="url(#mask3_137_227)">
<path d="M153.917 170.058H182.557V198.698H153.917V170.058Z" fill="#ADFF2F"/>
</g>
</g>
<path d="M249.145 93.4637H246.103L233.853 74.922V93.4637H230.832V70.1304H233.853L246.103 88.6512V70.1304H249.145V93.4637Z" fill="#04828D"/>
<path d="M254.742 84.2344C254.742 82.375 255.117 80.7344 255.867 79.3177C256.628 77.901 257.669 76.8073 258.992 76.026C260.326 75.25 261.805 74.8594 263.43 74.8594C265.039 74.8594 266.435 75.2083 267.617 75.901C268.794 76.5833 269.669 77.4427 270.242 78.4844V75.151H273.326V93.4635H270.242V90.0469C269.643 91.1198 268.747 92.0052 267.555 92.7135C266.357 93.4115 264.971 93.7552 263.388 93.7552C261.763 93.7552 260.289 93.3594 258.971 92.5677C257.664 91.7656 256.628 90.6406 255.867 89.1927C255.117 87.7344 254.742 86.0833 254.742 84.2344ZM270.242 84.276C270.242 82.8906 269.961 81.6875 269.409 80.6719C268.852 79.6458 268.102 78.8594 267.159 78.3177C266.211 77.7656 265.169 77.4844 264.034 77.4844C262.893 77.4844 261.852 77.7552 260.909 78.2969C259.977 78.8281 259.232 79.6042 258.68 80.6302C258.122 81.6615 257.846 82.8594 257.846 84.2344C257.846 85.6406 258.122 86.8594 258.68 87.901C259.232 88.9427 259.977 89.7344 260.909 90.276C261.852 90.8177 262.893 91.0885 264.034 91.0885C265.169 91.0885 266.211 90.8177 267.159 90.276C268.102 89.7344 268.852 88.9427 269.409 87.901C269.961 86.8594 270.242 85.651 270.242 84.276Z" fill="#04828D"/>
<path d="M283.75 77.651V88.4427C283.75 89.349 283.938 89.9792 284.313 90.3385C284.688 90.7031 285.339 90.8802 286.271 90.8802H288.521V93.4635H285.771C284.073 93.4635 282.802 93.0781 281.958 92.2969C281.125 91.5208 280.708 90.2344 280.708 88.4427V77.651H278.333V75.151H280.708V70.5469H283.75V75.151H288.521V77.651H283.75Z" fill="#04828D"/>
<path d="M310.002 75.1511V93.4636H306.96V90.7553C306.377 91.6876 305.565 92.4167 304.523 92.9428C303.492 93.4688 302.356 93.7345 301.106 93.7345C299.69 93.7345 298.408 93.4428 297.273 92.8595C296.132 92.2657 295.231 91.3751 294.565 90.1928C293.908 89.0157 293.585 87.5782 293.585 85.8803V75.1511H296.606V85.4845C296.606 87.2917 297.054 88.6824 297.96 89.6511C298.877 90.6095 300.127 91.0886 301.71 91.0886C303.335 91.0886 304.611 90.5886 305.544 89.5886C306.486 88.5886 306.96 87.1303 306.96 85.2136V75.1511H310.002Z" fill="#04828D"/>
<path d="M319.745 78.1304C320.287 77.0783 321.047 76.2658 322.037 75.6929C323.037 75.1095 324.245 74.8179 325.662 74.8179V77.9637H324.87C321.453 77.9637 319.745 79.8127 319.745 83.5054V93.4637H316.724V75.1512H319.745V78.1304Z" fill="#04828D"/>
<path d="M347.464 83.6094C347.464 84.1927 347.428 84.8073 347.36 85.4427H332.714C332.823 87.25 333.443 88.6615 334.568 89.6719C335.693 90.6875 337.058 91.1927 338.672 91.1927C339.974 91.1927 341.068 90.8906 341.943 90.276C342.829 89.6667 343.454 88.849 343.818 87.8177H347.089C346.599 89.5833 345.62 91.0156 344.152 92.1094C342.678 93.2083 340.849 93.7552 338.672 93.7552C336.933 93.7552 335.381 93.3698 334.006 92.5885C332.631 91.8125 331.553 90.7083 330.777 89.276C329.995 87.8333 329.61 86.1667 329.61 84.276C329.61 82.3906 329.985 80.7292 330.735 79.2969C331.495 77.8698 332.558 76.7708 333.922 76.0052C335.297 75.2448 336.881 74.8594 338.672 74.8594C340.407 74.8594 341.943 75.2448 343.277 76.0052C344.61 76.7552 345.636 77.7969 346.36 79.1302C347.094 80.4531 347.464 81.9427 347.464 83.6094ZM344.318 82.9635C344.318 81.8125 344.058 80.8177 343.547 79.9844C343.032 79.151 342.329 78.5208 341.443 78.0885C340.568 77.6458 339.594 77.4219 338.527 77.4219C336.995 77.4219 335.693 77.9167 334.61 78.901C333.527 79.875 332.907 81.2292 332.756 82.9635H344.318Z" fill="#04828D"/>
<path d="M245.582 116.005V120.588H236.041V125.526H243.187V129.963H236.041V139.463H230.312V116.005H245.582Z" fill="#04828D"/>
<path d="M249.031 130.109C249.031 128.193 249.39 126.516 250.114 125.068C250.833 123.609 251.822 122.495 253.072 121.714C254.322 120.938 255.708 120.547 257.239 120.547C258.557 120.547 259.708 120.818 260.697 121.359C261.697 121.891 262.458 122.589 262.989 123.464V120.818H268.718V139.464H262.989V136.818C262.432 137.693 261.661 138.401 260.677 138.943C259.687 139.469 258.536 139.734 257.218 139.734C255.703 139.734 254.322 139.339 253.072 138.547C251.822 137.755 250.833 136.63 250.114 135.172C249.39 133.714 249.031 132.026 249.031 130.109ZM262.989 130.13C262.989 128.714 262.593 127.599 261.802 126.776C261.02 125.943 260.062 125.526 258.927 125.526C257.786 125.526 256.822 125.938 256.031 126.755C255.239 127.563 254.843 128.682 254.843 130.109C254.843 131.542 255.239 132.672 256.031 133.505C256.822 134.339 257.786 134.755 258.927 134.755C260.062 134.755 261.02 134.349 261.802 133.526C262.593 132.693 262.989 131.563 262.989 130.13Z" fill="#04828D"/>
<path d="M280.139 123.922C280.806 122.896 281.639 122.089 282.639 121.505C283.639 120.911 284.748 120.609 285.972 120.609V126.672H284.41C282.977 126.672 281.91 126.979 281.201 127.589C280.493 128.203 280.139 129.276 280.139 130.818V139.464H274.41V120.818H280.139V123.922Z" fill="#04828D"/>
<path d="M314.07 120.609C316.388 120.609 318.237 121.313 319.612 122.714C320.987 124.12 321.675 126.068 321.675 128.568V139.464H315.987V129.339C315.987 128.13 315.664 127.203 315.029 126.547C314.388 125.896 313.513 125.568 312.404 125.568C311.289 125.568 310.414 125.896 309.779 126.547C309.154 127.203 308.841 128.13 308.841 129.339V139.464H303.154V129.339C303.154 128.13 302.831 127.203 302.195 126.547C301.57 125.896 300.695 125.568 299.57 125.568C298.456 125.568 297.581 125.896 296.945 126.547C296.32 127.203 296.008 128.13 296.008 129.339V139.464H290.279V120.818H296.008V123.151C296.576 122.375 297.326 121.755 298.258 121.297C299.201 120.839 300.263 120.609 301.445 120.609C302.847 120.609 304.097 120.917 305.195 121.526C306.305 122.125 307.175 122.979 307.8 124.089C308.435 123.063 309.31 122.229 310.425 121.589C311.55 120.938 312.763 120.609 314.07 120.609Z" fill="#04828D"/>
<path d="M326.103 130.109C326.103 128.193 326.462 126.516 327.186 125.068C327.905 123.609 328.894 122.495 330.144 121.714C331.394 120.938 332.78 120.547 334.311 120.547C335.629 120.547 336.78 120.818 337.769 121.359C338.769 121.891 339.53 122.589 340.061 123.464V120.818H345.79V139.464H340.061V136.818C339.504 137.693 338.733 138.401 337.748 138.943C336.759 139.469 335.608 139.734 334.29 139.734C332.774 139.734 331.394 139.339 330.144 138.547C328.894 137.755 327.905 136.63 327.186 135.172C326.462 133.714 326.103 132.026 326.103 130.109ZM340.061 130.13C340.061 128.714 339.665 127.599 338.873 126.776C338.092 125.943 337.134 125.526 335.998 125.526C334.858 125.526 333.894 125.938 333.103 126.755C332.311 127.563 331.915 128.682 331.915 130.109C331.915 131.542 332.311 132.672 333.103 133.505C333.894 134.339 334.858 134.755 335.998 134.755C337.134 134.755 338.092 134.349 338.873 133.526C339.665 132.693 340.061 131.563 340.061 130.13ZM340.519 116.172L332.457 119.547V115.609L340.519 111.734V116.172Z" fill="#04828D"/>
<path d="M350.356 130.13C350.356 128.203 350.752 126.516 351.544 125.068C352.336 123.609 353.44 122.495 354.856 121.714C356.273 120.938 357.888 120.547 359.711 120.547C362.044 120.547 363.992 121.167 365.565 122.401C367.148 123.625 368.179 125.349 368.669 127.568H362.586C362.07 126.141 361.075 125.422 359.606 125.422C358.565 125.422 357.731 125.833 357.106 126.651C356.481 127.458 356.169 128.62 356.169 130.13C356.169 131.661 356.481 132.833 357.106 133.651C357.731 134.458 358.565 134.859 359.606 134.859C361.075 134.859 362.07 134.146 362.586 132.714H368.669C368.179 134.896 367.148 136.609 365.565 137.859C363.981 139.109 362.028 139.734 359.711 139.734C357.888 139.734 356.273 139.349 354.856 138.568C353.44 137.792 352.336 136.682 351.544 135.234C350.752 133.776 350.356 132.078 350.356 130.13Z" fill="#04828D"/>
<path d="M376.139 118.88C375.139 118.88 374.316 118.588 373.68 118.005C373.055 117.411 372.743 116.672 372.743 115.797C372.743 114.911 373.055 114.172 373.68 113.588C374.316 112.994 375.139 112.692 376.139 112.692C377.123 112.692 377.93 112.994 378.555 113.588C379.191 114.172 379.514 114.911 379.514 115.797C379.514 116.672 379.191 117.411 378.555 118.005C377.93 118.588 377.123 118.88 376.139 118.88ZM378.993 120.817V139.463H373.264V120.817H378.993Z" fill="#04828D"/>
<path d="M383.564 130.109C383.564 128.193 383.924 126.516 384.648 125.068C385.367 123.609 386.356 122.495 387.606 121.714C388.856 120.938 390.242 120.547 391.773 120.547C393.09 120.547 394.242 120.818 395.231 121.359C396.231 121.891 396.992 122.589 397.523 123.464V120.818H403.252V139.464H397.523V136.818C396.965 137.693 396.195 138.401 395.21 138.943C394.221 139.469 393.07 139.734 391.752 139.734C390.236 139.734 388.856 139.339 387.606 138.547C386.356 137.755 385.367 136.63 384.648 135.172C383.924 133.714 383.564 132.026 383.564 130.109ZM397.523 130.13C397.523 128.714 397.127 127.599 396.335 126.776C395.554 125.943 394.596 125.526 393.46 125.526C392.32 125.526 391.356 125.938 390.564 126.755C389.773 127.563 389.377 128.682 389.377 130.109C389.377 131.542 389.773 132.672 390.564 133.505C391.356 134.339 392.32 134.755 393.46 134.755C394.596 134.755 395.554 134.349 396.335 133.526C397.127 132.693 397.523 131.563 397.523 130.13Z" fill="#04828D"/>
<path d="M118.49 151.172C117.036 155.563 113.563 159.036 109.167 160.484C108.474 160.714 108 161.359 108 162.099V162.104C108 163.266 109.135 164.094 110.234 163.729C115.651 161.943 119.938 157.651 121.724 152.24C122.089 151.135 121.26 150 120.104 150C119.37 150 118.719 150.469 118.49 151.172Z" fill="white"/>
</svg>
