<svg width="2500" height="2500" viewBox="0 0 2500 2500" fill="none" xmlns="http://www.w3.org/2000/svg">
<path d="M717.65 1067.41L717.387 1359.46L823.938 1298.21L824.929 1005.6L717.65 1067.41Z" fill="#252627"/>
<path d="M717.387 1360.46C717.214 1360.46 717.041 1360.41 716.886 1360.32C716.577 1360.14 716.387 1359.81 716.387 1359.46L716.65 1067.4C716.65 1067.05 716.841 1066.72 717.151 1066.54L824.43 1004.74C824.74 1004.56 825.121 1004.56 825.431 1004.74C825.74 1004.92 825.93 1005.25 825.929 1005.6L824.937 1298.22C824.936 1298.57 824.745 1298.9 824.435 1299.08L717.885 1360.32C717.731 1360.41 717.559 1360.46 717.387 1360.46ZM718.65 1067.98L718.389 1357.73L822.94 1297.63L823.924 1007.34L718.65 1067.98Z" fill="#252627"/>
<path d="M636.129 1021.1L636.66 1314.57L717.387 1359.46L717.65 1067.41L636.129 1021.1Z" fill="#87C159"/>
<path d="M717.387 1360.46C717.22 1360.46 717.052 1360.42 716.901 1360.33L636.173 1315.44C635.856 1315.27 635.66 1314.93 635.659 1314.57L635.128 1021.1C635.127 1020.75 635.316 1020.42 635.624 1020.24C635.932 1020.06 636.312 1020.06 636.622 1020.23L718.143 1066.54C718.456 1066.71 718.649 1067.05 718.649 1067.41L718.386 1359.46C718.386 1359.81 718.198 1360.14 717.893 1360.32C717.738 1360.41 717.563 1360.46 717.387 1360.46ZM637.659 1313.98L716.389 1357.76L716.65 1067.99L637.132 1022.82L637.659 1313.98Z" fill="#252627"/>
<path d="M743.507 959.018L636.129 1021.1L717.65 1067.41L824.929 1005.6L743.507 959.018Z" fill="white"/>
<path d="M717.65 1068.41C717.48 1068.41 717.309 1068.36 717.156 1068.28L635.635 1021.97C635.323 1021.8 635.13 1021.47 635.129 1021.11C635.128 1020.75 635.318 1020.42 635.629 1020.24L743.007 958.152C743.315 957.974 743.695 957.973 744.004 958.15L825.426 1004.74C825.737 1004.91 825.929 1005.24 825.929 1005.6C825.929 1005.96 825.738 1006.29 825.428 1006.47L718.149 1068.27C717.995 1068.36 717.823 1068.41 717.65 1068.41ZM638.14 1021.09L717.647 1066.25L822.921 1005.61L743.51 960.172L638.14 1021.09Z" fill="#252627"/>
<path d="M548.883 1313.64L548.62 1456.11L655.17 1394.87L656.162 1251.83L548.883 1313.64Z" fill="#252627"/>
<path d="M548.62 1457.11C548.447 1457.11 548.274 1457.07 548.118 1456.98C547.809 1456.8 547.619 1456.47 547.62 1456.11L547.883 1313.64C547.884 1313.28 548.075 1312.95 548.384 1312.77L655.663 1250.97C655.973 1250.79 656.356 1250.79 656.666 1250.97C656.976 1251.15 657.165 1251.48 657.163 1251.84L656.171 1394.88C656.169 1395.23 655.978 1395.56 655.669 1395.74L549.119 1456.98C548.964 1457.07 548.792 1457.11 548.62 1457.11ZM549.882 1314.22L549.623 1454.38L654.174 1394.29L655.149 1253.57L549.882 1314.22Z" fill="#252627"/>
<path d="M467.361 1267.33L467.892 1411.22L548.62 1456.11L548.883 1313.64L467.361 1267.33Z" fill="#ADFF2F"/>
<path d="M548.62 1457.11C548.453 1457.11 548.285 1457.07 548.134 1456.99L467.406 1412.1C467.09 1411.92 466.893 1411.59 466.892 1411.23L466.361 1267.34C466.36 1266.98 466.548 1266.65 466.856 1266.47C467.164 1266.29 467.545 1266.29 467.855 1266.46L549.376 1312.77C549.689 1312.95 549.883 1313.28 549.882 1313.64L549.619 1456.12C549.618 1456.47 549.431 1456.8 549.125 1456.98C548.97 1457.07 548.795 1457.11 548.62 1457.11ZM468.89 1410.64L547.623 1454.42L547.882 1314.22L468.368 1269.06L468.89 1410.64Z" fill="#252627"/>
<path d="M574.739 1205.25L467.361 1267.33L548.883 1313.64L656.162 1251.83L574.739 1205.25Z" fill="white"/>
<path d="M548.883 1314.64C548.713 1314.64 548.542 1314.59 548.389 1314.51L466.868 1268.2C466.556 1268.03 466.363 1267.7 466.362 1267.34C466.361 1266.98 466.551 1266.65 466.861 1266.47L574.239 1204.38C574.547 1204.21 574.927 1204.21 575.236 1204.38L656.658 1250.97C656.969 1251.15 657.161 1251.48 657.161 1251.83C657.161 1252.19 656.97 1252.52 656.66 1252.7L549.381 1314.5C549.227 1314.59 549.055 1314.64 548.883 1314.64ZM469.372 1267.33L548.879 1312.49L654.153 1251.84L574.742 1206.41L469.372 1267.33Z" fill="#252627"/>
<path d="M372.953 1253.24L372.691 1557.76L479.241 1496.52L480.232 1191.44L372.953 1253.24Z" fill="#252627"/>
<path d="M372.691 1558.76C372.518 1558.76 372.345 1558.72 372.19 1558.63C371.881 1558.45 371.691 1558.12 371.691 1557.76L371.954 1253.24C371.954 1252.89 372.145 1252.56 372.455 1252.38L479.734 1190.58C480.044 1190.4 480.426 1190.4 480.735 1190.58C481.044 1190.76 481.234 1191.09 481.233 1191.45L480.241 1496.52C480.24 1496.88 480.049 1497.21 479.739 1497.39L373.189 1558.63C373.035 1558.72 372.863 1558.76 372.691 1558.76ZM373.953 1253.82L373.692 1556.03L478.243 1495.94L479.227 1193.18L373.953 1253.82Z" fill="#252627"/>
<path d="M291.432 1206.94L291.963 1512.87L372.691 1557.76L372.953 1253.24L291.432 1206.94Z" fill="#ADC4CB"/>
<path d="M372.691 1558.76C372.524 1558.76 372.356 1558.72 372.205 1558.64L291.477 1513.75C291.16 1513.57 290.964 1513.24 290.963 1512.87L290.432 1206.94C290.431 1206.59 290.62 1206.26 290.928 1206.08C291.236 1205.9 291.616 1205.89 291.926 1206.07L373.447 1252.37C373.76 1252.55 373.953 1252.88 373.953 1253.24L373.69 1557.76C373.69 1558.12 373.502 1558.44 373.197 1558.62C373.041 1558.72 372.866 1558.76 372.691 1558.76ZM292.962 1512.28L371.692 1556.06L371.953 1253.83L292.435 1208.66L292.962 1512.28Z" fill="#252627"/>
<path d="M398.81 1144.86L291.432 1206.94L372.953 1253.24L480.232 1191.44L398.81 1144.86Z" fill="white"/>
<path d="M372.953 1254.25C372.783 1254.25 372.612 1254.2 372.459 1254.11L290.938 1207.81C290.626 1207.64 290.433 1207.31 290.432 1206.95C290.431 1206.59 290.621 1206.26 290.931 1206.08L398.309 1143.99C398.617 1143.82 398.997 1143.81 399.306 1143.99L480.728 1190.57C481.039 1190.75 481.231 1191.08 481.231 1191.44C481.231 1191.8 481.041 1192.13 480.73 1192.31L373.451 1254.11C373.298 1254.2 373.126 1254.25 372.953 1254.25ZM293.443 1206.93L372.95 1252.09L478.224 1191.45L398.813 1146.01L293.443 1206.93Z" fill="#252627"/>
<path d="M197.797 1403.26L197.534 1657.92L304.085 1596.67L305.076 1341.46L197.797 1403.26Z" fill="#252627"/>
<path d="M197.534 1658.92C197.361 1658.92 197.188 1658.87 197.033 1658.78C196.724 1658.6 196.534 1658.27 196.534 1657.91L196.797 1403.26C196.797 1402.9 196.988 1402.57 197.298 1402.39L304.577 1340.59C304.887 1340.41 305.269 1340.41 305.578 1340.59C305.887 1340.77 306.077 1341.1 306.076 1341.46L305.084 1596.68C305.083 1597.03 304.891 1597.36 304.582 1597.54L198.032 1658.78C197.879 1658.87 197.706 1658.92 197.534 1658.92ZM198.797 1403.84L198.537 1656.19L303.088 1596.09L304.071 1343.19L198.797 1403.84Z" fill="#252627"/>
<path d="M116.276 1356.96L116.807 1613.03L197.534 1657.92L197.797 1403.26L116.276 1356.96Z" fill="#ADC4CB"/>
<path d="M197.534 1658.92C197.367 1658.92 197.199 1658.87 197.048 1658.79L116.32 1613.9C116.003 1613.72 115.807 1613.39 115.806 1613.03L115.275 1356.96C115.274 1356.6 115.463 1356.27 115.771 1356.09C116.079 1355.91 116.459 1355.91 116.769 1356.08L198.29 1402.39C198.603 1402.57 198.796 1402.9 198.796 1403.26L198.533 1657.92C198.533 1658.27 198.345 1658.6 198.04 1658.78C197.885 1658.87 197.71 1658.92 197.534 1658.92ZM117.806 1612.44L196.537 1656.22L196.797 1403.84L117.28 1358.67L117.806 1612.44Z" fill="#252627"/>
<path d="M223.654 1294.87L116.276 1356.96L197.797 1403.26L305.076 1341.46L223.654 1294.87Z" fill="white"/>
<path d="M197.797 1404.26C197.627 1404.26 197.456 1404.22 197.303 1404.13L115.782 1357.83C115.47 1357.65 115.277 1357.32 115.276 1356.96C115.275 1356.6 115.465 1356.27 115.775 1356.09L223.153 1294.01C223.461 1293.83 223.841 1293.83 224.15 1294L305.572 1340.59C305.883 1340.77 306.075 1341.1 306.075 1341.46C306.075 1341.81 305.885 1342.14 305.574 1342.32L198.295 1404.13C198.142 1404.21 197.97 1404.26 197.797 1404.26ZM118.287 1356.95L197.794 1402.11L303.068 1341.46L223.657 1296.03L118.287 1356.95Z" fill="#252627"/>
<path d="M777.939 926.717L579.072 1237.05L411.737 1079.8L238.542 1327.42V1354.57L409.753 1106.67L577.261 1263.31L778.013 951.869L777.939 926.717Z" fill="#252627"/>
<path d="M238.542 1355.57C238.443 1355.57 238.343 1355.56 238.244 1355.53C237.826 1355.4 237.542 1355.01 237.542 1354.57V1327.42C237.542 1327.21 237.605 1327.01 237.722 1326.85L410.918 1079.23C411.084 1078.99 411.346 1078.84 411.635 1078.81C411.924 1078.78 412.211 1078.88 412.423 1079.07L578.88 1235.5L777.098 926.177C777.337 925.804 777.794 925.632 778.22 925.756C778.646 925.88 778.939 926.27 778.94 926.713L779.014 951.865C779.014 952.058 778.959 952.247 778.855 952.41L578.103 1263.85C577.942 1264.1 577.68 1264.27 577.385 1264.3C577.09 1264.34 576.796 1264.25 576.579 1264.04L409.919 1108.19L239.367 1355.14C239.175 1355.42 238.864 1355.57 238.542 1355.57ZM239.542 1327.73V1351.37L408.93 1106.1C409.095 1105.86 409.357 1105.71 409.646 1105.68C409.935 1105.65 410.224 1105.74 410.436 1105.94L577.069 1261.77L777.012 951.576L776.949 930.115L579.914 1237.59C579.754 1237.84 579.49 1238.01 579.195 1238.05C578.9 1238.09 578.604 1237.99 578.387 1237.78L411.895 1081.32L239.542 1327.73Z" fill="#252627"/>
<path d="M747.201 910.673L553.756 1213.31L579.106 1237L777.939 926.717L812.978 952.713L803.935 856.073L713.857 888.067L747.201 910.673Z" fill="#ADFF2F"/>
<path d="M579.106 1238C578.854 1238 578.609 1237.91 578.423 1237.73L553.073 1214.04C552.721 1213.71 552.654 1213.17 552.913 1212.77L745.834 910.953L713.296 888.893C712.984 888.682 712.817 888.312 712.865 887.938C712.913 887.564 713.167 887.249 713.522 887.123L803.6 855.129C803.891 855.026 804.213 855.063 804.473 855.228C804.733 855.394 804.902 855.671 804.931 855.978L813.973 952.618C814.01 953.011 813.812 953.389 813.468 953.583C813.124 953.777 812.698 953.75 812.381 953.515L778.202 928.156L579.947 1237.54C579.787 1237.79 579.524 1237.96 579.229 1237.99C579.189 1238 579.147 1238 579.106 1238ZM555.047 1213.14L578.912 1235.45L777.097 926.177C777.246 925.944 777.486 925.783 777.759 925.733C778.032 925.683 778.313 925.749 778.535 925.913L811.774 950.574L803.06 857.445L716.054 888.347L747.762 909.844C748.21 910.148 748.335 910.754 748.043 911.21L555.047 1213.14Z" fill="#252627"/>
<path d="M713.857 888.067L713.922 912.699L736.576 927.295L747.201 910.673L713.857 888.067Z" fill="white"/>
<path d="M736.576 928.295C736.385 928.295 736.197 928.241 736.034 928.136L713.38 913.54C713.095 913.356 712.922 913.041 712.922 912.702L712.858 888.069C712.857 887.698 713.061 887.358 713.388 887.184C713.716 887.01 714.112 887.031 714.419 887.239L747.763 909.845C748.211 910.149 748.336 910.755 748.044 911.211L737.419 927.833C737.276 928.057 737.049 928.215 736.79 928.271C736.719 928.287 736.647 928.295 736.576 928.295ZM714.92 912.153L736.274 925.91L745.834 910.954L714.862 889.956L714.92 912.153Z" fill="#252627"/>
<path d="M777.939 926.717L778.013 951.869L812.978 975.397V952.713L777.939 926.717Z" fill="white"/>
<path d="M812.978 976.397C812.782 976.397 812.588 976.34 812.42 976.227L777.455 952.699C777.18 952.514 777.014 952.204 777.013 951.872L776.939 926.72C776.938 926.342 777.15 925.995 777.488 925.824C777.826 925.653 778.231 925.688 778.535 925.914L813.574 951.911C813.828 952.099 813.978 952.397 813.978 952.714V975.397C813.978 975.767 813.774 976.106 813.448 976.28C813.3 976.358 813.139 976.397 812.978 976.397ZM779.011 951.335L811.978 973.518V953.216L778.945 928.707L779.011 951.335Z" fill="#252627"/>
<path d="M383.988 1062.02L411.737 1079.8L238.542 1327.42L210.79 1313.88L383.988 1062.02Z" fill="#ADFF2F"/>
<path d="M238.541 1328.42C238.393 1328.42 238.243 1328.38 238.103 1328.32L210.351 1314.77C210.089 1314.65 209.897 1314.41 209.822 1314.13C209.747 1313.85 209.8 1313.55 209.965 1313.31L383.163 1061.45C383.469 1061 384.072 1060.88 384.527 1061.17L412.276 1078.96C412.505 1079.11 412.665 1079.34 412.717 1079.61C412.769 1079.88 412.711 1080.15 412.555 1080.38L239.359 1327.99C239.169 1328.27 238.859 1328.42 238.541 1328.42ZM212.272 1313.48L238.213 1326.14L410.322 1080.08L384.264 1063.38L212.272 1313.48Z" fill="#252627"/>
<path d="M210.79 1313.88V1340.98L238.542 1354.57V1327.42L210.79 1313.88Z" fill="white"/>
<path d="M238.542 1355.57C238.392 1355.57 238.241 1355.54 238.102 1355.47L210.35 1341.88C210.007 1341.71 209.79 1341.36 209.79 1340.98V1313.87C209.79 1313.53 209.968 1313.21 210.26 1313.03C210.552 1312.84 210.919 1312.83 211.228 1312.98L238.98 1326.52C239.324 1326.69 239.541 1327.04 239.541 1327.42V1354.57C239.541 1354.92 239.363 1355.24 239.07 1355.42C238.91 1355.52 238.726 1355.57 238.542 1355.57ZM211.79 1340.36L237.542 1352.97V1328.04L211.79 1315.47V1340.36Z" fill="#252627"/>
<path d="M861.43 1905.9L434.262 1663.03C429.033 1660.06 425.86 1654.46 426.004 1648.44L426.519 1626.85L753.742 1458.39L1195.33 1691.21V1716.6C1195.33 1719.91 1193.56 1722.97 1190.7 1724.62L877.188 1905.84C872.318 1908.66 866.32 1908.68 861.43 1905.9Z" fill="#ADC4CB"/>
<path d="M869.259 1908.96C866.383 1908.96 863.506 1908.23 860.936 1906.77L433.768 1663.9C428.21 1660.74 424.852 1654.81 425.004 1648.42L425.519 1626.82C425.528 1626.46 425.736 1626.13 426.061 1625.96L753.284 1457.51C753.575 1457.36 753.919 1457.36 754.208 1457.51L1195.79 1690.32C1196.12 1690.5 1196.33 1690.84 1196.33 1691.21V1716.6C1196.33 1720.26 1194.36 1723.66 1191.2 1725.49L877.688 1906.71C875.092 1908.21 872.176 1908.96 869.259 1908.96ZM427.504 1627.46L427.004 1648.47C426.869 1654.12 429.84 1659.37 434.757 1662.17L861.925 1905.03C866.487 1907.63 872.144 1907.61 876.688 1904.98L1190.2 1723.76C1192.75 1722.28 1194.33 1719.54 1194.33 1716.6V1691.81L753.737 1459.52L427.504 1627.46Z" fill="#252627"/>
<path d="M1195.33 1698.15L869.32 1885.02V1907.97C869.32 1907.97 874.584 1907 876.235 1906.35C879.59 1905.03 888.745 1899.16 888.745 1899.16L1189.95 1725.06C1193.28 1723.13 1195.33 1719.58 1195.33 1715.73V1698.15Z" fill="#252627"/>
<path d="M869.319 1908.97C869.087 1908.97 868.86 1908.89 868.679 1908.74C868.451 1908.55 868.319 1908.27 868.319 1907.97V1885.02C868.319 1884.66 868.511 1884.33 868.822 1884.15L1194.83 1697.28C1195.14 1697.11 1195.52 1697.11 1195.83 1697.29C1196.14 1697.46 1196.33 1697.79 1196.33 1698.15V1715.73C1196.33 1719.92 1194.08 1723.82 1190.45 1725.92L889.245 1900.03C888.907 1900.25 880.008 1905.94 876.602 1907.28C874.879 1907.96 869.719 1908.91 869.5 1908.95C869.44 1908.97 869.38 1908.97 869.319 1908.97ZM870.319 1885.6V1906.76C872.124 1906.41 874.853 1905.82 875.867 1905.42C879.094 1904.15 888.114 1898.38 888.204 1898.32L1189.45 1724.19C1192.46 1722.45 1194.33 1719.21 1194.33 1715.74V1699.88L870.319 1885.6Z" fill="#252627"/>
<path d="M864.178 1883.67L431.57 1637.71C424.624 1633.76 424.601 1623.76 431.528 1619.77L748.617 1437.54C751.791 1435.72 755.694 1435.71 758.875 1437.52L1190.11 1683.22C1197.04 1687.17 1197.07 1697.14 1190.17 1701.13L874.451 1883.63C871.276 1885.47 867.366 1885.48 864.178 1883.67Z" fill="white"/>
<path d="M869.282 1886.01C867.347 1886.01 865.413 1885.52 863.684 1884.54L431.076 1638.58C427.498 1636.54 425.357 1632.87 425.347 1628.76C425.337 1624.64 427.462 1620.96 431.03 1618.91L748.119 1436.67C751.586 1434.68 755.897 1434.67 759.371 1436.65L1190.61 1682.35C1194.18 1684.38 1196.31 1688.05 1196.33 1692.16C1196.34 1696.26 1194.22 1699.94 1190.67 1702L874.951 1884.5C873.205 1885.5 871.243 1886.01 869.282 1886.01ZM753.764 1437.17C752.156 1437.17 750.549 1437.59 749.116 1438.41L432.027 1620.64C429.089 1622.33 427.339 1625.36 427.347 1628.75C427.355 1632.14 429.118 1635.16 432.064 1636.84L864.672 1882.8C867.539 1884.43 871.094 1884.41 873.95 1882.76L1189.67 1700.27C1192.59 1698.57 1194.34 1695.54 1194.33 1692.16C1194.32 1688.78 1192.56 1685.76 1189.62 1684.09L758.381 1438.39C756.956 1437.58 755.36 1437.17 753.764 1437.17Z" fill="#252627"/>
<path d="M762.508 1457.43L1161.14 1684.55C1164.77 1686.62 1164.79 1691.85 1161.17 1693.94L872.931 1860.55C867.355 1863.78 860.488 1863.8 854.89 1860.62L460.63 1636.46C456.936 1634.36 456.923 1629.04 460.608 1626.92L755.505 1457.44C757.672 1456.2 760.336 1456.19 762.508 1457.43Z" fill="white"/>
<path d="M863.855 1863.98C860.587 1863.98 857.318 1863.15 854.397 1861.49L460.136 1637.33C458.085 1636.16 456.858 1634.06 456.852 1631.7C456.846 1629.34 458.064 1627.23 460.11 1626.06L755.007 1456.58C757.471 1455.16 760.535 1455.16 763.004 1456.56L1161.63 1683.68C1163.65 1684.83 1164.87 1686.91 1164.87 1689.23C1164.88 1691.56 1163.68 1693.64 1161.67 1694.81L873.432 1861.42C870.483 1863.13 867.169 1863.98 863.855 1863.98ZM759.018 1457.51C757.975 1457.51 756.932 1457.78 756.003 1458.31L461.106 1627.79C459.691 1628.6 458.848 1630.06 458.852 1631.7C458.856 1633.33 459.705 1634.79 461.124 1635.59L855.385 1859.75C860.653 1862.74 867.185 1862.72 872.431 1859.69L1160.67 1693.08C1162.05 1692.28 1162.88 1690.84 1162.87 1689.24C1162.87 1687.64 1162.03 1686.21 1160.64 1685.42L762.013 1458.3C761.089 1457.77 760.053 1457.51 759.018 1457.51Z" fill="#252627"/>
<path d="M1081.3 1780.79L1012.36 1820.64L1012.25 1812.58L1081.43 1772.59L1081.3 1780.79Z" fill="#252627"/>
<path d="M1012.36 1821.64C1012.19 1821.64 1012.02 1821.6 1011.87 1821.51C1011.56 1821.34 1011.37 1821.01 1011.36 1820.66L1011.25 1812.59C1011.24 1812.23 1011.43 1811.9 1011.75 1811.71L1080.93 1771.72C1081.24 1771.54 1081.63 1771.54 1081.94 1771.73C1082.25 1771.91 1082.44 1772.25 1082.43 1772.61L1082.3 1780.81C1082.29 1781.16 1082.1 1781.48 1081.8 1781.66L1012.86 1821.51C1012.71 1821.6 1012.53 1821.64 1012.36 1821.64ZM1013.26 1813.15L1013.34 1818.92L1080.31 1780.21L1080.4 1774.34L1013.26 1813.15Z" fill="#252627"/>
<path d="M766.507 1713.31L766.542 1743.95L806.446 1767.23V1736.57L766.507 1713.31Z" fill="#ADFF2F"/>
<path d="M806.446 1768.23C806.272 1768.23 806.098 1768.18 805.942 1768.09L766.038 1744.81C765.731 1744.63 765.542 1744.31 765.542 1743.95L765.506 1713.31C765.506 1712.95 765.697 1712.62 766.007 1712.44C766.317 1712.26 766.7 1712.27 767.009 1712.44L806.948 1735.7C807.256 1735.88 807.445 1736.21 807.445 1736.57V1767.23C807.445 1767.58 807.254 1767.91 806.943 1768.09C806.79 1768.18 806.618 1768.23 806.446 1768.23ZM767.542 1743.37L805.446 1765.48V1737.14L767.509 1715.05L767.542 1743.37Z" fill="#252627"/>
<path d="M740.703 1700L740.64 1699.96L700.428 1676.54L700.614 1676.43L757.671 1643.44L757.734 1643.47L797.946 1666.81L797.76 1666.91L740.703 1700ZM700.926 1676.54L740.703 1699.71L797.448 1666.81L757.671 1643.73L700.926 1676.54Z" fill="#252627"/>
<path d="M810.518 1499.51C811.073 1501.52 811.455 1503.57 811.662 1505.65L851.812 1528.72C851.607 1526.64 848.022 1510.72 847.471 1508.71L810.518 1499.51Z" fill="#252627"/>
<path d="M851.813 1529.72C851.641 1529.72 851.469 1529.67 851.315 1529.58L811.165 1506.52C810.885 1506.36 810.7 1506.07 810.668 1505.75C810.467 1503.73 810.093 1501.73 809.555 1499.78C809.461 1499.43 809.555 1499.07 809.803 1498.81C810.051 1498.56 810.416 1498.45 810.761 1498.54L847.714 1507.74C848.065 1507.83 848.341 1508.1 848.437 1508.45C848.92 1510.21 852.591 1526.41 852.809 1528.62C852.846 1528.99 852.671 1529.35 852.357 1529.55C852.191 1529.66 852.002 1529.72 851.813 1529.72ZM812.602 1505.04L850.465 1526.79C849.588 1522.32 847.362 1512.4 846.651 1509.54L811.894 1500.88C812.207 1502.25 812.444 1503.64 812.602 1505.04Z" fill="#252627"/>
<path d="M871.63 1578.76C871.442 1626.29 837.552 1670.41 799.4 1695.6L799.406 1724.83L766.544 1743.95L766.508 1713.31C753.041 1718.72 736.572 1722.99 722.442 1717.4C705.888 1710.86 701.427 1692.69 700.678 1676.54L757.672 1643.58C760.647 1677.21 795.024 1653.9 807.081 1638.18C819.346 1622.19 820.771 1595.58 795.195 1599.04C774.821 1601.79 755.788 1611.69 734.974 1612.53C707.689 1613.62 699.411 1590.36 700.086 1566.72C701.355 1522.24 731.767 1482.89 766.211 1457.4L766.176 1426.81L799.343 1407.86L799.349 1437.7C813.725 1431.26 832.21 1424.95 847.611 1431.82C863.362 1438.84 867.628 1457.22 868.723 1472.86L811.663 1505.65C808.127 1467.17 752.875 1508.98 756.992 1536.37C761.307 1565.08 824.516 1536.37 841.226 1537.11C864.533 1538.15 871.667 1558.28 871.63 1578.76Z" fill="white"/>
<path d="M766.542 1744.95C766.37 1744.95 766.198 1744.9 766.044 1744.82C765.734 1744.64 765.542 1744.31 765.542 1743.95L765.508 1714.78C747.728 1721.69 733.51 1722.85 722.073 1718.33C708.245 1712.86 700.71 1698.82 699.678 1676.59C699.661 1676.21 699.853 1675.86 700.176 1675.68L757.17 1642.72C757.466 1642.55 757.828 1642.54 758.132 1642.7C758.435 1642.85 758.637 1643.15 758.667 1643.5C759.459 1652.45 762.552 1657.77 767.86 1659.32C778.878 1662.52 797.667 1648.81 806.287 1637.57C814.234 1627.21 816.906 1613.67 812.502 1606.08C809.555 1601 803.617 1598.91 795.328 1600.03C786.438 1601.23 777.62 1603.86 769.091 1606.4C758.128 1609.67 746.791 1613.05 735.013 1613.52C724.942 1613.93 716.77 1611.11 710.726 1605.13C702.737 1597.24 698.603 1583.58 699.085 1566.69C699.685 1545.67 706.677 1524.71 719.868 1504.39C731.188 1486.96 746.86 1470.55 765.209 1456.9L765.174 1426.81C765.174 1426.45 765.366 1426.11 765.678 1425.94L798.845 1406.99C799.154 1406.82 799.535 1406.82 799.843 1407C800.151 1407.17 800.341 1407.5 800.341 1407.86L800.347 1436.16C827.245 1424.42 840.418 1427.51 848.017 1430.9C861.054 1436.72 868.153 1450.42 869.719 1472.79C869.746 1473.17 869.552 1473.53 869.22 1473.72L812.16 1506.52C811.865 1506.69 811.503 1506.69 811.201 1506.54C810.899 1506.38 810.697 1506.08 810.666 1505.74C810.005 1498.54 807.496 1493.94 803.211 1492.06C797.314 1489.48 788.159 1492.25 778.723 1499.48C767.379 1508.17 756.049 1523.37 757.98 1536.22C758.571 1540.16 760.311 1543.03 763.299 1545C773.962 1552.05 797.857 1545.85 817.057 1540.86C827.35 1538.19 836.241 1535.88 841.27 1536.11C852.353 1536.6 860.686 1541.32 866.036 1550.12C870.37 1557.26 872.65 1567.16 872.629 1578.76V1578.76C872.541 1601.08 864.918 1624.37 850.586 1646.11C837.962 1665.26 820.154 1683.01 800.4 1696.14L800.405 1724.83C800.405 1725.19 800.216 1725.52 799.908 1725.69L767.045 1744.81C766.89 1744.9 766.716 1744.95 766.542 1744.95ZM766.506 1712.31C766.703 1712.31 766.898 1712.37 767.066 1712.48C767.341 1712.67 767.506 1712.98 767.506 1713.31L767.539 1742.21L798.404 1724.25L798.399 1695.6C798.399 1695.27 798.568 1694.95 798.848 1694.77C818.561 1681.75 836.342 1664.08 848.916 1645.01C863.034 1623.59 870.542 1600.68 870.629 1578.75C870.655 1564.06 866.863 1539.25 841.181 1538.11C836.451 1537.89 827.696 1540.17 817.559 1542.8C797.975 1547.88 773.602 1554.21 762.196 1546.67C758.757 1544.4 756.672 1540.98 756.001 1536.52C753.949 1522.87 765.71 1506.93 777.506 1497.89C787.53 1490.22 797.439 1487.35 804.013 1490.23C808.687 1492.28 811.533 1496.91 812.485 1504.02L867.678 1472.3C866.083 1451.11 859.381 1438.16 847.201 1432.73C831.792 1425.85 812.743 1432.79 799.755 1438.61C799.445 1438.75 799.087 1438.72 798.803 1438.54C798.518 1438.35 798.347 1438.04 798.347 1437.7L798.341 1409.58L767.175 1427.38L767.21 1457.4C767.21 1457.71 767.06 1458.01 766.805 1458.2C748.471 1471.77 732.82 1488.12 721.546 1505.48C708.558 1525.48 701.674 1546.09 701.085 1566.74C700.619 1583.08 704.542 1596.21 712.133 1603.71C717.768 1609.28 725.44 1611.9 734.934 1611.53C746.462 1611.06 757.676 1607.72 768.521 1604.48C777.123 1601.92 786.017 1599.27 795.061 1598.04C806.629 1596.48 811.872 1601 814.233 1605.08C819.019 1613.33 816.286 1627.82 807.874 1638.79C799.097 1650.23 779.598 1664.81 767.302 1661.24C761.454 1659.54 757.938 1654.15 756.839 1645.22L701.706 1677.1C702.804 1698.12 709.902 1711.37 722.809 1716.47C734.039 1720.91 748.211 1719.57 766.134 1712.38C766.254 1712.33 766.381 1712.31 766.506 1712.31Z" fill="#252627"/>
<path d="M801.054 1598.46C825.619 1596.49 813.805 1630.75 804.678 1641C791.698 1655.58 760.393 1675.79 757.672 1643.58L797.698 1666.8C800.382 1699.04 831.717 1678.74 844.676 1664.17C853.843 1653.86 865.664 1619.75 841.105 1621.6L801.054 1598.46Z" fill="#252627"/>
<path d="M811.154 1684.99C809.589 1684.99 808.098 1684.78 806.706 1684.31C800.975 1682.4 797.626 1676.71 796.748 1667.41L782.29 1659.02C776.693 1661.51 771.189 1662.59 766.718 1661.1C760.868 1659.15 757.489 1653.28 756.676 1643.67C756.645 1643.3 756.822 1642.94 757.137 1642.74C757.452 1642.54 757.852 1642.53 758.174 1642.72L782.436 1656.79C783.741 1656.17 784.982 1655.51 786.12 1654.86C792.403 1651.23 799.062 1645.81 803.932 1640.34C809.538 1634.04 816.71 1617.2 814.138 1607.18L800.555 1599.33C800.176 1599.11 799.983 1598.67 800.08 1598.24C800.176 1597.81 800.539 1597.5 800.975 1597.46C809.623 1596.77 813.395 1600.55 815.036 1603.85C815.351 1604.48 815.617 1605.15 815.836 1605.85L841.341 1620.58C849.777 1620.05 853.473 1623.79 855.089 1627.06C857.388 1631.7 857.241 1638.81 854.676 1647.09C852.552 1653.94 848.92 1660.9 845.425 1664.83C837.326 1673.94 822.382 1684.99 811.154 1684.99ZM784.479 1657.98L798.199 1665.94C798.482 1666.1 798.667 1666.4 798.694 1666.72C799.422 1675.46 802.33 1680.74 807.338 1682.41C817.74 1685.88 835.321 1673.18 843.928 1663.5C847.249 1659.77 850.717 1653.09 852.763 1646.49C855.175 1638.71 855.364 1632.12 853.294 1627.94C851.313 1623.94 847.237 1622.14 841.179 1622.6C840.979 1622.61 840.778 1622.57 840.604 1622.47L816.435 1608.5C818.065 1619.55 810.859 1635.57 805.425 1641.67C800.298 1647.43 792.421 1653.96 784.479 1657.98ZM758.875 1645.44C759.864 1653.03 762.71 1657.65 767.349 1659.2C771.262 1660.5 775.922 1659.51 780.168 1657.79L758.875 1645.44ZM804.781 1599.46L812.941 1604.17C811.333 1601.4 808.597 1599.82 804.781 1599.46Z" fill="#252627"/>
<path d="M806.445 1449.87V1480.48C776.236 1502.88 749.187 1535.69 742.037 1573.51C739.839 1585.14 753.247 1629.62 753.247 1629.62C753.247 1629.62 717.217 1609.94 711.802 1604.78C702.747 1596.16 699.662 1581.51 700.088 1566.71C701.357 1522.24 731.771 1482.89 766.207 1457.4L766.173 1426.8L806.445 1449.87Z" fill="#87C159"/>
<path d="M753.247 1630.62C753.083 1630.62 752.918 1630.58 752.768 1630.5C751.292 1629.69 716.56 1610.69 711.113 1605.51C702.865 1597.65 698.594 1583.87 699.088 1566.68C699.688 1545.66 706.68 1524.71 719.871 1504.39C731.187 1486.97 746.857 1470.55 765.206 1456.89L765.172 1426.8C765.172 1426.45 765.361 1426.12 765.67 1425.94C765.979 1425.76 766.359 1425.76 766.669 1425.93L806.941 1449C807.252 1449.18 807.444 1449.51 807.444 1449.87V1480.48C807.444 1480.8 807.294 1481.09 807.04 1481.28C772.632 1506.8 749.298 1540.48 743.019 1573.7C740.891 1584.95 754.071 1628.89 754.204 1629.33C754.321 1629.72 754.192 1630.14 753.877 1630.4C753.695 1630.55 753.472 1630.62 753.247 1630.62ZM767.175 1428.53L767.207 1457.4C767.207 1457.72 767.057 1458.01 766.802 1458.2C748.468 1471.78 732.819 1488.13 721.548 1505.48C708.56 1525.49 701.676 1546.1 701.087 1566.74C700.609 1583.35 704.66 1596.6 712.491 1604.06C716.997 1608.35 743.793 1623.27 751.598 1627.58C748.843 1618.15 739.104 1583.64 741.054 1573.33C747.4 1539.76 770.861 1505.76 805.445 1479.98V1450.46L767.175 1428.53Z" fill="#252627"/>
<path d="M847.61 1431.81C832.209 1424.94 813.724 1431.26 799.348 1437.7L839.586 1460.73C853.942 1454.28 889.438 1455.57 889.438 1455.57C889.438 1455.57 863.361 1438.84 847.61 1431.81Z" fill="#87C159"/>
<path d="M839.585 1461.73C839.413 1461.73 839.242 1461.69 839.088 1461.6L798.85 1438.57C798.523 1438.38 798.329 1438.03 798.348 1437.65C798.367 1437.27 798.595 1436.94 798.938 1436.79C826.788 1424.31 840.286 1427.45 848.017 1430.9C863.656 1437.88 889.716 1454.56 889.977 1454.73C890.356 1454.97 890.526 1455.44 890.391 1455.87C890.256 1456.3 889.852 1456.59 889.4 1456.57C889.047 1456.56 853.972 1455.36 839.994 1461.65C839.865 1461.7 839.725 1461.73 839.585 1461.73ZM801.561 1437.81L839.645 1459.61C851.669 1454.5 876.494 1454.35 885.848 1454.49C878.506 1449.89 859.546 1438.24 847.202 1432.73C832.493 1426.17 814.466 1432.19 801.561 1437.81Z" fill="#252627"/>
<path d="M700.677 1676.54C701.426 1692.68 705.17 1708.13 720.07 1717.86C723.972 1720.41 761.35 1740.27 761.35 1740.27C761.35 1740.27 741.43 1715.98 740.703 1699.85L700.677 1676.54Z" fill="#87C159"/>
<path d="M761.35 1741.27C761.191 1741.27 761.03 1741.23 760.881 1741.15C759.353 1740.34 723.419 1721.24 719.523 1718.7C703.17 1708.01 700.327 1690.58 699.678 1676.59C699.661 1676.22 699.845 1675.87 700.159 1675.69C700.472 1675.5 700.864 1675.49 701.181 1675.68L741.207 1698.99C741.501 1699.16 741.687 1699.47 741.703 1699.81C742.407 1715.41 761.927 1739.39 762.125 1739.63C762.427 1740 762.427 1740.53 762.125 1740.9C761.929 1741.14 761.642 1741.27 761.35 1741.27ZM701.778 1678.34C703.334 1702.68 712.626 1711.8 720.618 1717.02C723.667 1719.02 747.852 1731.94 757.686 1737.19C752.154 1729.81 740.613 1713.04 739.736 1700.45L701.778 1678.34Z" fill="#252627"/>
<path d="M898.98 1566.23C886.583 1567.88 832.692 1573.71 832.692 1573.71C832.692 1573.71 805.199 1576.93 799.012 1565.76C795.647 1559.69 795.794 1552.99 797.959 1546.53C815.364 1542.88 832.536 1538.19 840.23 1536.7C850.576 1534.69 860.282 1537.45 869.494 1541.79C882.513 1547.91 892.444 1559.56 898.98 1566.23Z" fill="#252627"/>
<path d="M823.988 1575.16C815.154 1575.16 802.31 1573.78 798.137 1566.25C794.896 1560.39 794.516 1553.66 797.01 1546.21C797.123 1545.88 797.406 1545.63 797.753 1545.55C807.411 1543.53 817.13 1541.15 824.94 1539.24C831.195 1537.71 836.598 1536.39 840.039 1535.72C849.17 1533.95 858.665 1535.59 869.919 1540.88C881.309 1546.24 890.263 1555.65 896.801 1562.52C897.83 1563.6 898.794 1564.61 899.694 1565.53C899.959 1565.8 900.048 1566.2 899.925 1566.55C899.802 1566.91 899.487 1567.17 899.112 1567.22C886.845 1568.86 833.338 1574.65 832.799 1574.71C832.397 1574.75 828.784 1575.16 823.988 1575.16ZM798.73 1547.39C796.618 1554.06 797.006 1560.08 799.887 1565.28C805.682 1575.74 832.307 1572.75 832.575 1572.72C833.097 1572.66 881.733 1567.4 896.876 1565.49C896.385 1564.98 895.877 1564.44 895.352 1563.89C888.923 1557.14 880.118 1547.89 869.067 1542.69C858.215 1537.59 849.113 1535.99 840.419 1537.68C837.026 1538.34 831.645 1539.66 825.415 1541.18C817.743 1543.06 808.233 1545.39 798.73 1547.39Z" fill="#252627"/>
<path d="M911.611 1604.28C912.09 1585.83 908.239 1565.92 887.826 1561.03C870.536 1556.89 849.83 1565.55 833.18 1569.28C823.067 1571.54 805.202 1576.94 799.007 1565.76C789.996 1549.49 806.179 1528.79 818.934 1519.98C832.087 1510.91 849.954 1508.15 851.811 1528.71L908.871 1495.83C907.798 1480.21 903.568 1461.81 887.821 1454.79C872.424 1447.92 853.94 1454.28 839.584 1460.73L839.613 1430.87L806.446 1449.87V1480.48C776.235 1502.88 749.187 1535.69 742.035 1573.51C737.651 1596.7 738.338 1631.7 768.094 1635.56C788.598 1638.23 809.635 1627.58 829.283 1623.31C836.107 1621.83 845.596 1619.46 851.435 1624.44C860.262 1631.97 855.213 1648.28 850.403 1656.53C840.283 1673.88 800.725 1702.86 797.696 1666.8L740.702 1699.85C741.43 1715.98 745.853 1734.18 762.403 1740.71C776.527 1746.29 792.995 1741.98 806.444 1736.57V1767.22L839.307 1748.05L839.335 1718.81C876.956 1693.9 910.086 1650.97 911.611 1604.28Z" fill="#87C159"/>
<path d="M806.446 1768.23C806.274 1768.23 806.102 1768.18 805.948 1768.09C805.637 1767.92 805.446 1767.58 805.446 1767.23V1738.04C787.671 1744.98 773.462 1746.16 762.038 1741.64C748.223 1736.19 740.709 1722.14 739.705 1699.9C739.688 1699.52 739.88 1699.17 740.202 1698.99L797.196 1665.94C797.492 1665.77 797.856 1665.76 798.16 1665.92C798.464 1666.08 798.665 1666.38 798.694 1666.72C799.479 1676.06 802.78 1681.45 808.506 1682.74C820.921 1685.54 842.22 1668.58 849.541 1656.03C854.341 1647.79 858.924 1632.15 850.787 1625.2C845.588 1620.77 836.828 1622.68 830.432 1624.09L829.497 1624.29C823.416 1625.61 817.319 1627.51 810.864 1629.52C796.82 1633.89 782.298 1638.41 767.967 1636.55C759.023 1635.39 752.015 1631.39 747.137 1624.66C735.833 1609.08 739.117 1583.57 741.054 1573.33C747.404 1539.74 770.866 1505.74 805.448 1479.98V1449.87C805.448 1449.51 805.64 1449.18 805.951 1449L839.118 1430C839.428 1429.83 839.808 1429.83 840.117 1430.01C840.426 1430.19 840.615 1430.52 840.615 1430.87L840.587 1459.19C867.481 1447.41 880.639 1450.49 888.23 1453.87C901.254 1459.68 908.333 1473.38 909.871 1495.77C909.897 1496.15 909.704 1496.51 909.373 1496.7L852.313 1529.58C852.017 1529.75 851.655 1529.76 851.353 1529.6C851.05 1529.45 850.848 1529.14 850.818 1528.8C850.191 1521.86 847.687 1517.32 843.374 1515.3C836.398 1512.03 826.47 1516 819.504 1520.81C806.594 1529.72 791.431 1550.01 799.883 1565.27C805.176 1574.83 820.22 1571.29 830.175 1568.95C831.154 1568.72 832.087 1568.5 832.962 1568.3C836.974 1567.4 841.18 1566.23 845.633 1564.98C859.262 1561.18 874.709 1556.86 888.06 1560.06C905.008 1564.11 913.268 1579 912.612 1604.31V1604.31C911.895 1626.28 904.021 1649.09 889.842 1670.27C877.118 1689.28 860.008 1706.24 840.338 1719.35L840.31 1748.06C840.31 1748.41 840.121 1748.74 839.814 1748.92L806.951 1768.09C806.794 1768.18 806.62 1768.23 806.446 1768.23ZM806.446 1735.57C806.643 1735.57 806.838 1735.63 807.006 1735.74C807.281 1735.92 807.446 1736.24 807.446 1736.57V1765.48L838.31 1747.48L838.338 1718.81C838.338 1718.47 838.506 1718.16 838.786 1717.98C858.425 1704.97 875.505 1688.09 888.179 1669.16C902.15 1648.29 909.907 1625.84 910.612 1604.25C911.249 1579.68 903.72 1565.86 887.594 1562C874.749 1558.93 859.566 1563.17 846.171 1566.91C841.692 1568.16 837.462 1569.34 833.399 1570.25C832.53 1570.45 831.604 1570.67 830.632 1570.89C820.09 1573.37 804.159 1577.12 798.133 1566.24C788.981 1549.72 804.456 1528.76 818.367 1519.16C825.789 1514.04 836.479 1509.86 844.221 1513.49C848.882 1515.67 851.709 1520.24 852.635 1527.09L907.83 1495.28C906.263 1474.08 899.581 1461.13 887.415 1455.7C872.025 1448.84 852.981 1455.81 839.995 1461.65C839.686 1461.78 839.326 1461.76 839.042 1461.57C838.758 1461.39 838.585 1461.07 838.586 1460.73L838.614 1432.6L807.448 1450.45V1480.49C807.448 1480.8 807.298 1481.1 807.043 1481.29C772.637 1506.79 749.302 1540.48 743.019 1573.7C741.131 1583.69 737.909 1608.53 748.756 1623.49C753.298 1629.76 759.848 1633.49 768.224 1634.57C782.12 1636.38 796.43 1631.92 810.269 1627.61C816.482 1625.68 822.905 1623.68 829.072 1622.34L830.003 1622.14C836.809 1620.64 846.13 1618.6 852.085 1623.68C861.212 1631.47 856.597 1647.9 851.268 1657.04C843.684 1670.04 821.714 1687.78 808.065 1684.7C801.734 1683.27 797.968 1677.8 796.858 1668.45L741.731 1700.41C742.802 1721.45 749.879 1734.69 762.772 1739.79C773.99 1744.22 788.153 1742.86 806.072 1735.64C806.193 1735.59 806.319 1735.57 806.446 1735.57Z" fill="#252627"/>
<path d="M799.341 1407.86L766.175 1426.81L806.447 1449.87L839.615 1430.88L799.341 1407.86Z" fill="#ADFF2F"/>
<path d="M806.447 1450.87C806.275 1450.87 806.104 1450.83 805.95 1450.74L765.677 1427.67C765.366 1427.5 765.174 1427.16 765.174 1426.81C765.174 1426.45 765.367 1426.12 765.678 1425.94L798.845 1406.99C799.152 1406.82 799.53 1406.82 799.837 1406.99L840.11 1430.01C840.422 1430.19 840.614 1430.52 840.614 1430.88C840.614 1431.23 840.422 1431.57 840.111 1431.74L806.944 1450.74C806.79 1450.83 806.619 1450.87 806.447 1450.87ZM768.189 1426.81L806.448 1448.72L837.601 1430.88L799.342 1409.01L768.189 1426.81Z" fill="#252627"/>
<path d="M700.677 1676.54L741.595 1699.33L797.698 1666.81L757.672 1643.58L700.677 1676.54Z" fill="#ADFF2F"/>
<path d="M741.594 1700.33C741.426 1700.33 741.259 1700.29 741.107 1700.21L700.19 1677.42C699.876 1677.24 699.68 1676.91 699.677 1676.55C699.674 1676.19 699.865 1675.86 700.176 1675.68L757.17 1642.72C757.48 1642.54 757.863 1642.54 758.172 1642.72L798.198 1665.94C798.506 1666.12 798.696 1666.45 798.696 1666.81C798.696 1667.16 798.506 1667.49 798.198 1667.67L742.095 1700.2C741.941 1700.29 741.768 1700.33 741.594 1700.33ZM702.703 1676.53L741.585 1698.18L795.705 1666.8L757.671 1644.74L702.703 1676.53Z" fill="#252627"/>
<path d="M891.417 1402.93L891.184 1374.64L1418.33 1095.92L2228.84 1562.08C2232.96 1564.45 2229.73 1570.65 2229.73 1570.65L1713.38 1871.76C1703.96 1877.22 1692.34 1877.22 1682.92 1871.76L899.783 1417.46C894.604 1414.45 891.417 1408.92 891.417 1402.93Z" fill="#ADC4CB"/>
<path d="M1698.15 1876.85C1692.71 1876.85 1687.27 1875.44 1682.42 1872.63L899.282 1418.32C893.816 1415.15 890.42 1409.26 890.417 1402.94L890.184 1374.65C890.181 1374.27 890.386 1373.93 890.716 1373.75L1417.87 1095.04C1418.17 1094.88 1418.53 1094.88 1418.83 1095.05L2229.33 1561.21C2233.26 1563.46 2231.89 1568.67 2230.61 1571.11C2230.53 1571.28 2230.39 1571.42 2230.23 1571.51L1713.88 1872.62C1709.03 1875.44 1703.59 1876.85 1698.15 1876.85ZM892.189 1375.24L892.417 1402.92V1402.93C892.417 1408.54 895.432 1413.78 900.286 1416.59L1683.42 1870.9C1692.51 1876.17 1703.79 1876.17 1712.88 1870.9L2228.96 1569.94C2229.45 1568.86 2231.18 1564.58 2228.34 1562.94L1418.32 1097.06L892.189 1375.24Z" fill="#252627"/>
<path d="M897.201 1363.32L1391.31 1079.28L2211.95 1551.57L1714.39 1839.45C1704.35 1845.28 1691.96 1845.27 1681.92 1839.45L897.16 1384.21C889.13 1379.55 889.153 1367.94 897.201 1363.32Z" fill="white"/>
<path d="M1698.15 1844.81C1692.37 1844.81 1686.58 1843.31 1681.41 1840.31L896.658 1385.07C892.574 1382.7 890.142 1378.47 890.151 1373.75C890.16 1369.03 892.609 1364.8 896.703 1362.45L1390.81 1078.41C1391.12 1078.23 1391.5 1078.24 1391.81 1078.41L2212.45 1550.7C2212.76 1550.88 2212.95 1551.21 2212.95 1551.57C2212.95 1551.93 2212.76 1552.26 2212.45 1552.44L1714.89 1840.32C1709.73 1843.31 1703.94 1844.81 1698.15 1844.81ZM1391.31 1080.43L897.7 1364.18C894.234 1366.18 892.16 1369.75 892.152 1373.75C892.144 1377.75 894.204 1381.33 897.662 1383.34L1682.42 1838.58C1692.12 1844.21 1704.18 1844.21 1713.89 1838.59L2209.95 1551.57L1391.31 1080.43Z" fill="#252627"/>
<path d="M2211.7 1547.18C2211.47 1551.36 2204.48 1555.39 2201.95 1556.85L1712.17 1840.73C1712.17 1840.73 1708.61 1842.48 1705.23 1843.19C1701.52 1843.96 1698.14 1843.82 1698.14 1843.82V1875.86C1698.14 1875.86 1703.95 1875.53 1708.22 1874.14C1712.93 1872.61 1717.72 1869.85 1717.72 1869.85L2224.18 1575.51C2229.49 1572.42 2233.76 1567.96 2236.61 1562.69L2211.7 1547.18Z" fill="#252627"/>
<path d="M1698.15 1876.86C1697.89 1876.86 1697.65 1876.76 1697.46 1876.59C1697.26 1876.4 1697.15 1876.13 1697.15 1875.86V1843.82C1697.15 1843.55 1697.26 1843.28 1697.45 1843.1C1697.65 1842.91 1697.92 1842.81 1698.19 1842.82C1698.22 1842.82 1701.49 1842.94 1705.03 1842.21C1708.25 1841.54 1711.7 1839.85 1711.74 1839.83L2201.45 1555.98C2203.7 1554.68 2210.5 1550.75 2210.7 1547.13C2210.72 1546.77 2210.93 1546.46 2211.24 1546.29C2211.55 1546.13 2211.93 1546.15 2212.23 1546.33L2237.14 1561.84C2237.59 1562.12 2237.74 1562.7 2237.49 1563.16C2234.52 1568.67 2230.09 1573.23 2224.69 1576.37L1718.22 1870.71C1718.02 1870.83 1713.29 1873.54 1708.53 1875.09C1704.19 1876.5 1698.45 1876.84 1698.2 1876.86C1698.18 1876.86 1698.17 1876.86 1698.15 1876.86ZM1699.15 1844.83V1874.78C1700.99 1874.61 1704.89 1874.17 1707.91 1873.18C1712.47 1871.7 1717.18 1869.01 1717.22 1868.98L2223.68 1574.64C2228.5 1571.85 2232.49 1567.84 2235.27 1563.03L2212.37 1548.78C2210.89 1552.84 2204.9 1556.3 2202.47 1557.7L1712.68 1841.6C1712.47 1841.7 1708.9 1843.44 1705.44 1844.17C1702.86 1844.7 1700.46 1844.81 1699.15 1844.83Z" fill="#252627"/>
<path d="M2095.85 1554.04L1908.7 1662.68C1899.89 1667.79 1889.01 1667.8 1880.19 1662.7L1192.55 1265.04C1183.29 1259.68 1183.31 1246.32 1192.58 1240.99L1379.77 1133.51C1388.55 1128.46 1399.35 1128.47 1408.13 1133.53L2095.81 1529.91C2105.09 1535.27 2105.11 1548.66 2095.85 1554.04Z" fill="#ADC4CB"/>
<path d="M1894.42 1667.51C1889.33 1667.51 1884.23 1666.2 1879.69 1663.57L1192.05 1265.9C1187.39 1263.21 1184.61 1258.39 1184.62 1253C1184.63 1247.62 1187.42 1242.81 1192.09 1240.13L1379.27 1132.64C1388.33 1127.44 1399.58 1127.45 1408.62 1132.66L2096.31 1529.05C2100.98 1531.74 2103.78 1536.57 2103.78 1541.96C2103.79 1547.36 2101.01 1552.19 2096.35 1554.9L1909.2 1663.54C1904.64 1666.19 1899.53 1667.51 1894.42 1667.51ZM1393.92 1130.74C1389.2 1130.74 1384.48 1131.95 1380.26 1134.37L1193.08 1241.86C1189.04 1244.18 1186.62 1248.35 1186.62 1253.01C1186.61 1257.67 1189.01 1261.84 1193.05 1264.17L1880.69 1661.84C1889.17 1666.74 1899.71 1666.73 1908.19 1661.81L2095.34 1553.17C2099.38 1550.83 2101.79 1546.64 2101.78 1541.97C2101.78 1537.3 2099.36 1533.11 2095.31 1530.78L1407.62 1134.4C1403.4 1131.96 1398.66 1130.74 1393.92 1130.74Z" fill="#252627"/>
<path d="M1452.73 1676.67L1191.44 1525.57C1182.18 1520.21 1182.21 1506.84 1191.48 1501.52L1345.14 1413.34C1353.92 1408.3 1364.72 1408.31 1373.49 1413.37L1634.27 1563.67C1643.56 1569.02 1643.58 1582.41 1634.31 1587.79L1481.24 1676.65C1472.43 1681.76 1461.55 1681.77 1452.73 1676.67Z" fill="white"/>
<path d="M1466.97 1681.48C1461.87 1681.48 1456.78 1680.17 1452.23 1677.54L1190.94 1526.43C1186.28 1523.74 1183.5 1518.91 1183.51 1513.53C1183.52 1508.15 1186.31 1503.33 1190.98 1500.65L1344.64 1412.48C1353.7 1407.28 1364.94 1407.29 1373.99 1412.5L1634.77 1562.8C1639.44 1565.49 1642.24 1570.32 1642.25 1575.72C1642.26 1581.11 1639.48 1585.95 1634.81 1588.66L1481.74 1677.51C1477.19 1680.16 1472.08 1681.48 1466.97 1681.48ZM1359.29 1410.58C1354.57 1410.58 1349.85 1411.79 1345.64 1414.21L1191.98 1502.39C1187.94 1504.71 1185.52 1508.87 1185.51 1513.53C1185.5 1518.19 1187.91 1522.37 1191.94 1524.7L1453.23 1675.81C1461.72 1680.72 1472.26 1680.71 1480.74 1675.78L1633.81 1586.93C1637.85 1584.58 1640.26 1580.39 1640.25 1575.72C1640.24 1571.05 1637.82 1566.87 1633.77 1564.54L1372.99 1414.24C1368.77 1411.8 1364.03 1410.58 1359.29 1410.58Z" fill="#252627"/>
<path d="M2323.32 935.395L2240.27 1551.45L2210.7 1551.65L2176.47 1530.6L1424.17 1067.94L1474.44 456.89L1474.79 456.731L1477.73 455.383L1493.88 447.972C1503.17 443.847 1510.83 444.176 1519.65 449.241L2305.98 900.217C2318.37 907.328 2325.23 921.234 2323.32 935.395Z" fill="white"/>
<path d="M2210.7 1552.65C2210.52 1552.65 2210.34 1552.6 2210.18 1552.5L1423.65 1068.8C1423.33 1068.6 1423.14 1068.24 1423.17 1067.86L1473.44 456.81C1473.47 456.448 1473.7 456.13 1474.03 455.981L1477.32 454.476L1493.46 447.066C1503.12 442.782 1511.09 443.175 1520.15 448.377L2306.47 899.353C2319.28 906.698 2326.28 920.899 2324.31 935.53L2241.26 1551.58C2241.19 1552.07 2240.77 1552.44 2240.27 1552.45L2210.71 1552.65C2210.71 1552.65 2210.7 1552.65 2210.7 1552.65ZM1425.22 1067.41L2210.98 1550.65L2239.39 1550.45L2322.33 935.262C2324.19 921.44 2317.58 908.026 2305.48 901.087L1519.15 450.111C1510.72 445.264 1503.28 444.898 1494.29 448.889L1475.39 457.56L1425.22 1067.41Z" fill="#252627"/>
<path d="M2320.41 915.977C2317.41 909.489 2312.45 903.922 2305.98 900.21L1519.65 449.243C1510.83 444.178 1503.17 443.849 1493.88 447.974L1477.74 455.385L1481.35 457.458L2273.23 911.599C2279.63 915.27 2284.55 920.754 2287.55 927.151L2320.41 915.977Z" fill="white"/>
<path d="M2287.55 928.152C2287.18 928.152 2286.82 927.936 2286.65 927.577C2283.65 921.197 2278.84 915.973 2272.73 912.467L1477.24 456.252C1476.91 456.066 1476.72 455.713 1476.74 455.339C1476.75 454.965 1476.98 454.631 1477.32 454.475L1493.46 447.064C1503.12 442.78 1511.09 443.173 1520.15 448.375L2306.47 899.341C2313.02 903.095 2318.15 908.703 2321.31 915.557C2321.43 915.814 2321.44 916.11 2321.32 916.37C2321.21 916.63 2321 916.831 2320.73 916.922L2287.88 928.097C2287.77 928.135 2287.66 928.152 2287.55 928.152ZM1479.92 455.484L1481.85 456.591L2273.72 910.732C2279.93 914.294 2284.88 919.533 2288.07 925.921L2319.02 915.393C2316 909.373 2311.34 904.438 2305.48 901.077L1519.15 450.111C1510.71 445.263 1503.28 444.898 1494.29 448.889L1479.92 455.484Z" fill="#252627"/>
<path d="M1391.31 1079.28L1469.02 463.604C1469.76 457.74 1476.23 454.518 1481.35 457.458L2273.07 911.522C2285.5 918.651 2292.4 932.574 2290.55 946.785L2211.53 1552.12L1391.31 1079.28Z" fill="#87C159"/>
<path d="M2211.54 1553.12C2211.36 1553.12 2211.19 1553.08 2211.04 1552.99L1390.81 1080.15C1390.46 1079.94 1390.27 1079.55 1390.32 1079.15L1468.03 463.477C1468.42 460.391 1470.31 457.72 1473.1 456.333C1475.88 454.946 1479.15 455.041 1481.85 456.589L2273.57 910.653C2286.4 918.012 2293.46 932.245 2291.55 946.912L2212.53 1552.25C2212.48 1552.58 2212.28 1552.87 2211.98 1553.02C2211.84 1553.09 2211.69 1553.12 2211.54 1553.12ZM1392.38 1078.74L2210.74 1550.51L2289.56 946.654C2291.37 932.793 2284.7 919.342 2272.57 912.388L1480.86 458.324C1478.74 457.11 1476.17 457.035 1473.99 458.123C1471.8 459.211 1470.32 461.307 1470.01 463.728L1392.38 1078.74Z" fill="#252627"/>
<path d="M2236.61 1562.69C2238.48 1559.23 2239.73 1555.43 2240.27 1551.45L2323.32 935.385C2324.23 928.619 2323.14 921.912 2320.41 915.976L2287.55 927.151C2290.34 933.09 2291.47 939.817 2290.59 946.61L2213.27 1541.47C2212.78 1545.23 2211.31 1548.74 2209.09 1551.69L2236.61 1562.69Z" fill="#252627"/>
<path d="M2236.61 1563.69C2236.48 1563.69 2236.36 1563.67 2236.24 1563.62L2208.71 1552.62C2208.42 1552.51 2208.21 1552.26 2208.12 1551.96C2208.04 1551.66 2208.1 1551.34 2208.29 1551.09C2210.44 1548.24 2211.81 1544.87 2212.27 1541.34L2289.6 946.482C2290.44 940.015 2289.42 933.478 2286.65 927.577C2286.53 927.32 2286.52 927.023 2286.63 926.761C2286.74 926.499 2286.96 926.297 2287.23 926.206L2320.08 915.031C2320.57 914.867 2321.1 915.094 2321.31 915.559C2324.19 921.803 2325.23 928.706 2324.31 935.521L2241.26 1551.58C2240.71 1555.65 2239.44 1559.55 2237.49 1563.17C2237.31 1563.5 2236.97 1563.69 2236.61 1563.69ZM2210.64 1551.24L2236.14 1561.43C2237.75 1558.25 2238.8 1554.85 2239.28 1551.31L2322.33 935.253C2323.16 929.113 2322.3 922.897 2319.86 917.218L2288.92 927.745C2291.5 933.721 2292.42 940.264 2291.58 946.74L2214.26 1541.6C2213.81 1545.04 2212.56 1548.35 2210.64 1551.24Z" fill="#252627"/>
<path d="M1435.49 1027.79L1499.35 537.051L1935.45 787.161L1871.5 1278.31L1435.49 1027.79Z" fill="white"/>
<path d="M1871.5 1279.31C1871.33 1279.31 1871.16 1279.27 1871 1279.18L1434.99 1028.66C1434.64 1028.46 1434.45 1028.07 1434.5 1027.66L1498.36 536.922C1498.4 536.591 1498.61 536.304 1498.91 536.155C1499.2 536.006 1499.56 536.017 1499.85 536.183L1935.95 786.293C1936.3 786.494 1936.49 786.888 1936.44 787.29L1872.49 1278.44C1872.45 1278.77 1872.24 1279.06 1871.94 1279.21C1871.81 1279.28 1871.65 1279.31 1871.5 1279.31ZM1436.57 1027.26L1870.7 1276.7L1934.37 787.696L1500.15 538.662L1436.57 1027.26Z" fill="#252627"/>
<path d="M2332.49 1453.05L2383.44 1100.65C2384.57 1092.86 2380.82 1085.17 2373.99 1081.25L1866.99 790.46C1861.62 787.384 1855.16 786.899 1849.4 789.139L1830.46 796.501L1792.74 1152.1L2308.63 1467.22L2313.25 1465.25C2313.25 1465.25 2331.5 1459.88 2332.49 1453.05Z" fill="white"/>
<path d="M2308.62 1468.22C2308.44 1468.22 2308.26 1468.18 2308.1 1468.08L1792.22 1152.95C1791.89 1152.75 1791.71 1152.38 1791.75 1151.99L1829.46 796.396C1829.5 796.024 1829.75 795.705 1830.1 795.57L1849.03 788.208C1855.1 785.847 1861.83 786.352 1867.48 789.594L2374.48 1080.38C2381.72 1084.53 2385.62 1092.55 2384.43 1100.8L2333.48 1453.2C2332.44 1460.38 2315.77 1465.55 2313.59 1466.19L2309.02 1468.15C2308.89 1468.2 2308.76 1468.22 2308.62 1468.22ZM1793.8 1151.57L2308.71 1466.1L2312.86 1464.33C2312.89 1464.31 2312.93 1464.3 2312.97 1464.29C2317.87 1462.84 2330.76 1457.99 2331.5 1452.91L2382.45 1100.51C2383.52 1093.07 2380.01 1085.86 2373.49 1082.12L1866.49 791.327C1861.36 788.387 1855.26 787.93 1849.76 790.07L1831.39 797.211L1793.8 1151.57Z" fill="#252627"/>
<path d="M2382.34 1090.96C2382.34 1090.96 2383.38 1093.69 2383.64 1095.63C2383.91 1097.76 2383.44 1100.65 2383.44 1100.65L2336.61 1451.98C2336.61 1451.98 2336.33 1454.81 2325.83 1459.99C2320.01 1462.86 2311.93 1466.1 2311.93 1466.1L2362.16 1098.65L2382.34 1090.96Z" fill="#252627"/>
<path d="M2311.93 1467.1C2311.71 1467.1 2311.49 1467.03 2311.32 1466.89C2311.04 1466.67 2310.89 1466.32 2310.94 1465.97L2361.17 1098.52C2361.22 1098.15 2361.46 1097.85 2361.8 1097.72L2381.98 1090.03C2382.5 1089.83 2383.07 1090.09 2383.27 1090.6C2383.32 1090.72 2384.36 1093.46 2384.63 1095.5C2384.92 1097.76 2384.45 1100.69 2384.43 1100.82L2337.6 1452.12C2337.55 1452.65 2336.74 1455.72 2326.28 1460.89C2320.48 1463.75 2312.39 1467 2312.3 1467.03C2312.18 1467.08 2312.06 1467.1 2311.93 1467.1ZM2363.07 1099.37L2313.16 1464.52C2315.8 1463.43 2321.21 1461.15 2325.39 1459.09C2334.82 1454.44 2335.62 1451.82 2335.63 1451.8L2382.45 1100.52C2382.46 1100.46 2382.9 1097.72 2382.65 1095.76C2382.5 1094.63 2382.06 1093.19 2381.74 1092.26L2363.07 1099.37Z" fill="#252627"/>
<path d="M2362.16 1098.65L1831.15 796.232L1847.38 789.12C1853.54 786.421 1860.62 786.803 1866.45 790.149L2374.37 1081.48C2374.37 1081.48 2377.35 1083.58 2379.17 1085.62C2380.92 1087.58 2382.34 1090.96 2382.34 1090.96L2362.16 1098.65Z" fill="white"/>
<path d="M2362.16 1099.65C2361.98 1099.65 2361.81 1099.61 2361.66 1099.52L1830.65 797.101C1830.32 796.914 1830.13 796.557 1830.15 796.18C1830.17 795.802 1830.4 795.468 1830.75 795.316L1846.98 788.203C1853.4 785.39 1860.87 785.793 1866.95 789.281L2374.87 1080.61C2375.07 1080.75 2378.04 1082.85 2379.91 1084.95C2381.75 1087.01 2383.2 1090.43 2383.26 1090.58C2383.36 1090.83 2383.36 1091.11 2383.25 1091.36C2383.15 1091.61 2382.94 1091.8 2382.69 1091.9L2362.51 1099.59C2362.4 1099.63 2362.28 1099.65 2362.16 1099.65ZM1833.37 796.349L2362.24 1097.55L2380.98 1090.41C2380.45 1089.31 2379.49 1087.49 2378.42 1086.29C2376.7 1084.35 2373.82 1082.32 2373.8 1082.3L1865.95 791.016C1860.42 787.842 1853.63 787.475 1847.78 790.035L1833.37 796.349Z" fill="#252627"/>
<path d="M2317.07 1458.6L2363.1 1105.1C2363.73 1100.25 2361.37 1095.49 2357.12 1093.05L1841.2 797.145C1833.73 792.86 1824.3 797.535 1823.19 806.077L1777.61 1156.27C1776.98 1161.13 1779.34 1165.89 1783.59 1168.32L2302.13 1466C2308.33 1469.56 2316.15 1465.68 2317.07 1458.6Z" fill="white"/>
<path d="M2307.12 1468.34C2305.23 1468.34 2303.34 1467.85 2301.64 1466.87L1783.09 1169.19C1778.47 1166.54 1775.94 1161.42 1776.62 1156.14L1822.19 805.948C1822.76 801.605 1825.44 797.851 1829.36 795.905C1833.29 793.959 1837.9 794.099 1841.69 796.278L2357.62 1092.18C2362.23 1094.83 2364.77 1099.95 2364.09 1105.23L2318.06 1458.73C2317.59 1462.39 2315.33 1465.55 2312.02 1467.19C2310.47 1467.95 2308.8 1468.34 2307.12 1468.34ZM1835.18 796.539C1833.5 796.539 1831.81 796.924 1830.25 797.696C1826.93 799.345 1824.66 802.526 1824.18 806.205L1778.61 1156.4C1778.02 1160.87 1780.17 1165.21 1784.08 1167.45L2302.63 1465.13C2305.25 1466.64 2308.43 1466.73 2311.13 1465.39C2313.84 1464.05 2315.69 1461.46 2316.08 1458.47L2362.1 1104.97C2362.69 1100.5 2360.53 1096.16 2356.62 1093.92L1840.7 798.013C1838.99 797.032 1837.09 796.539 1835.18 796.539Z" fill="#252627"/>
<path d="M1821.78 816.855L2360.4 1125.78L2363.11 1104.96C2363.73 1100.19 2361.41 1095.51 2357.24 1093.12L1840.99 797.027C1833.62 792.798 1824.31 797.412 1823.22 805.842L1821.78 816.855Z" fill="#ADFF2F"/>
<path d="M2360.4 1126.78C2360.23 1126.78 2360.06 1126.73 2359.9 1126.64L1821.29 817.722C1820.93 817.521 1820.74 817.127 1820.79 816.726L1822.22 805.713C1822.78 801.423 1825.43 797.714 1829.31 795.792C1833.18 793.87 1837.74 794.008 1841.49 796.16L2357.74 1092.25C2362.28 1094.86 2364.78 1099.9 2364.1 1105.09L2361.39 1125.91C2361.35 1126.24 2361.14 1126.52 2360.84 1126.67C2360.7 1126.74 2360.55 1126.78 2360.4 1126.78ZM1822.86 816.32L2359.6 1124.17L2362.12 1104.83C2362.69 1100.44 2360.58 1096.19 2356.74 1093.98L1840.5 797.894C1837.32 796.074 1833.47 795.958 1830.2 797.583C1826.92 799.208 1824.68 802.343 1824.21 805.97L1822.86 816.32Z" fill="#252627"/>
<path d="M2281.24 1158.33L2284.97 1129.63L2147.7 1050.93L2143.97 1079.63L2281.24 1158.33Z" fill="white"/>
<path d="M2281.24 1159.33C2281.07 1159.33 2280.89 1159.29 2280.74 1159.2L2143.47 1080.5C2143.12 1080.3 2142.92 1079.9 2142.98 1079.5L2146.71 1050.8C2146.76 1050.47 2146.96 1050.18 2147.26 1050.03C2147.56 1049.88 2147.91 1049.89 2148.2 1050.06L2285.47 1128.76C2285.82 1128.96 2286.02 1129.36 2285.97 1129.76L2282.23 1158.46C2282.19 1158.79 2281.98 1159.08 2281.68 1159.23C2281.54 1159.3 2281.39 1159.33 2281.24 1159.33ZM2145.05 1079.09L2280.44 1156.72L2283.9 1130.16L2148.5 1052.54L2145.05 1079.09Z" fill="#252627"/>
<path d="M1857.32 888.473L1824.84 1122.73L2060.03 1257.81L2092.5 1023.48L1857.32 888.473Z" fill="#ADC4CB"/>
<path d="M2060.03 1258.81C2059.86 1258.81 2059.69 1258.77 2059.53 1258.68L1824.34 1123.6C1823.99 1123.4 1823.8 1123 1823.85 1122.6L1856.33 888.337C1856.38 888.008 1856.58 887.723 1856.88 887.576C1857.18 887.43 1857.53 887.441 1857.82 887.607L2092.99 1022.61C2093.35 1022.81 2093.54 1023.21 2093.49 1023.61L2061.02 1257.95C2060.98 1258.28 2060.77 1258.57 2060.47 1258.71C2060.33 1258.78 2060.18 1258.81 2060.03 1258.81ZM1825.92 1122.2L2059.24 1256.21L2091.41 1024.01L1858.11 890.079L1825.92 1122.2Z" fill="#252627"/>
<path d="M2177.05 1310.95L2160.84 1315.74C2160.84 1315.74 2136.11 1259.33 2131.75 1237.28C2126.11 1208.8 2124.13 1182.04 2140.12 1173.44C2152.62 1166.73 2168.51 1161.95 2183.68 1166.01C2193.45 1168.62 2202.85 1173.99 2211.37 1181.27L2188.17 1238.98L2177.05 1310.95Z" fill="white"/>
<path d="M2160.84 1316.74C2160.45 1316.74 2160.09 1316.51 2159.92 1316.14C2159.67 1315.57 2135.1 1259.37 2130.76 1237.48C2127.38 1220.35 2126.12 1207.76 2126.82 1197.83C2127.73 1184.98 2131.93 1176.71 2139.65 1172.56C2150.62 1166.66 2167.21 1160.57 2183.93 1165.04C2193.58 1167.62 2203.03 1172.83 2212.02 1180.51C2212.34 1180.79 2212.45 1181.25 2212.29 1181.65L2189.14 1239.24L2178.04 1311.11C2177.98 1311.49 2177.71 1311.8 2177.33 1311.91L2161.12 1316.7C2161.03 1316.72 2160.93 1316.74 2160.84 1316.74ZM2171.93 1165.5C2159.93 1165.5 2148.7 1169.97 2140.6 1174.32C2124.34 1183.06 2127.85 1212.45 2132.73 1237.09C2136.73 1257.35 2158.37 1307.55 2161.4 1314.53L2176.16 1310.18L2187.18 1238.82C2187.2 1238.75 2187.22 1238.68 2187.25 1238.6L2210.17 1181.57C2201.58 1174.34 2192.58 1169.43 2183.42 1166.98C2179.56 1165.95 2175.71 1165.5 2171.93 1165.5Z" fill="#252627"/>
<path d="M2160.84 1315.74C2139.72 1301.5 2121.43 1274.87 2115.27 1243.76C2105.66 1195.18 2130.53 1162.68 2167.2 1172.49C2176.97 1175.1 2186.37 1180.46 2194.89 1187.75L2171.7 1245.45L2160.84 1315.74Z" fill="white"/>
<path d="M2160.84 1316.74C2160.64 1316.74 2160.45 1316.68 2160.28 1316.57C2137.77 1301.4 2120.15 1273.57 2114.29 1243.95C2108.95 1216.98 2114.12 1193.06 2128.1 1179.97C2138.27 1170.45 2152.25 1167.45 2167.46 1171.52C2177.11 1174.1 2186.56 1179.31 2195.54 1186.99C2195.87 1187.27 2195.98 1187.73 2195.82 1188.12L2172.67 1245.72L2161.83 1315.89C2161.78 1316.23 2161.55 1316.52 2161.24 1316.65C2161.11 1316.71 2160.98 1316.74 2160.84 1316.74ZM2154.58 1171.75C2144.95 1171.75 2136.29 1175.04 2129.47 1181.43C2115.99 1194.05 2111.05 1217.28 2116.25 1243.56C2121.9 1272.11 2138.63 1298.94 2160.09 1314.01L2170.71 1245.3C2170.72 1245.23 2170.74 1245.15 2170.77 1245.08L2193.7 1188.05C2185.1 1180.81 2176.1 1175.9 2166.94 1173.45C2162.7 1172.32 2158.55 1171.75 2154.58 1171.75Z" fill="#252627"/>
<path d="M2194.89 1187.75L2171.7 1245.45L2160.84 1315.74L2177.05 1310.95L2188.17 1238.98L2211.37 1181.27L2194.89 1187.75Z" fill="#252627"/>
<path d="M2160.84 1316.74C2160.6 1316.74 2160.37 1316.65 2160.18 1316.49C2159.92 1316.26 2159.8 1315.92 2159.85 1315.58L2170.71 1245.3C2170.72 1245.23 2170.74 1245.15 2170.77 1245.08L2193.96 1187.38C2194.07 1187.12 2194.27 1186.92 2194.53 1186.82L2211 1180.34C2211.37 1180.2 2211.8 1180.29 2212.08 1180.57C2212.36 1180.85 2212.44 1181.28 2212.29 1181.65L2189.14 1239.24L2178.04 1311.11C2177.98 1311.49 2177.71 1311.8 2177.34 1311.91L2161.12 1316.7C2161.03 1316.72 2160.93 1316.74 2160.84 1316.74ZM2172.67 1245.72L2162.07 1314.33L2176.16 1310.18L2187.18 1238.82C2187.2 1238.75 2187.22 1238.68 2187.25 1238.6L2209.57 1183.05L2195.66 1188.52L2172.67 1245.72Z" fill="#252627"/>
<path d="M2193.83 1252.43L2251.11 1282.3C2251.11 1282.3 2248.65 1317.84 2210.75 1328.39C2201.92 1328.21 2192.71 1323.75 2183.95 1318.72L2179.38 1257.31L2193.83 1252.43Z" fill="#87C159"/>
<path d="M2210.75 1329.39C2210.75 1329.39 2210.74 1329.39 2210.73 1329.39C2201.42 1329.2 2191.72 1324.33 2183.46 1319.59C2183.17 1319.42 2182.98 1319.13 2182.96 1318.8L2178.38 1257.38C2178.35 1256.92 2178.63 1256.5 2179.06 1256.36L2193.51 1251.49C2193.77 1251.4 2194.05 1251.42 2194.29 1251.55L2251.57 1281.41C2251.92 1281.6 2252.13 1281.97 2252.1 1282.37C2252.08 1282.73 2249.16 1318.74 2211.02 1329.35C2210.93 1329.38 2210.84 1329.39 2210.75 1329.39ZM2184.91 1318.12C2192.81 1322.62 2201.97 1327.16 2210.63 1327.39C2244.51 1317.87 2249.47 1287.67 2250.04 1282.87L2193.75 1253.52L2180.44 1258.01L2184.91 1318.12Z" fill="#252627"/>
<path d="M2236.65 1287.17L2251.1 1282.3C2251.1 1282.3 2248.65 1317.84 2210.75 1328.39L2236.65 1287.17Z" fill="#252627"/>
<path d="M2210.75 1329.39C2210.44 1329.39 2210.14 1329.24 2209.95 1328.99C2209.7 1328.66 2209.69 1328.21 2209.91 1327.86L2235.81 1286.64C2235.93 1286.45 2236.12 1286.3 2236.33 1286.22L2250.79 1281.35C2251.1 1281.25 2251.45 1281.3 2251.72 1281.51C2251.98 1281.71 2252.13 1282.04 2252.1 1282.37C2252.08 1282.73 2249.16 1318.73 2211.02 1329.35C2210.93 1329.38 2210.84 1329.39 2210.75 1329.39ZM2237.31 1288.01L2213.02 1326.67C2243.11 1316.96 2248.93 1290.41 2249.92 1283.76L2237.31 1288.01Z" fill="#252627"/>
<path d="M2179.38 1257.31L2236.66 1287.17C2236.66 1287.17 2228.03 1332.45 2196.21 1331.67C2187.37 1331.49 2178.26 1328.62 2169.5 1323.59L2179.38 1257.31Z" fill="#87C159"/>
<path d="M2197.01 1332.68C2196.74 1332.68 2196.46 1332.67 2196.18 1332.67C2187.33 1332.49 2178.18 1329.73 2169.01 1324.46C2168.65 1324.26 2168.45 1323.85 2168.51 1323.45L2178.39 1257.16C2178.44 1256.84 2178.64 1256.56 2178.93 1256.41C2179.22 1256.27 2179.56 1256.27 2179.84 1256.42L2237.12 1286.29C2237.51 1286.49 2237.72 1286.93 2237.64 1287.36C2237.55 1287.82 2228.63 1332.68 2197.01 1332.68ZM2170.59 1323.06C2179.28 1327.94 2187.9 1330.5 2196.23 1330.67C2224.66 1331.4 2234.23 1293.46 2235.52 1287.71L2180.16 1258.84L2170.59 1323.06Z" fill="#252627"/>
<path d="M2220.71 1192.24C2220.71 1192.24 2246.34 1216.14 2249.39 1254.75C2249.78 1259.74 2249.19 1266.87 2249.19 1266.87L2234.02 1271.94L2191.99 1242.56L2205.21 1197.99L2220.71 1192.24Z" fill="#252627"/>
<path d="M2234.02 1272.94C2233.82 1272.94 2233.62 1272.88 2233.45 1272.76L2191.42 1243.38C2191.07 1243.14 2190.91 1242.69 2191.03 1242.28L2204.25 1197.7C2204.34 1197.4 2204.57 1197.16 2204.86 1197.05L2220.37 1191.3C2220.72 1191.17 2221.12 1191.25 2221.4 1191.51C2221.66 1191.75 2247.34 1216.12 2250.38 1254.67C2250.78 1259.68 2250.21 1266.65 2250.19 1266.95C2250.15 1267.34 2249.89 1267.69 2249.51 1267.81L2234.34 1272.89C2234.23 1272.92 2234.12 1272.94 2234.02 1272.94ZM2193.16 1242.16L2234.18 1270.83L2248.24 1266.13C2248.37 1264.26 2248.7 1258.81 2248.39 1254.82C2245.63 1219.84 2223.84 1196.77 2220.47 1193.4L2206.03 1198.75L2193.16 1242.16Z" fill="#252627"/>
<path d="M2205.21 1197.99C2205.21 1197.99 2230.84 1221.89 2233.88 1260.49C2234.28 1265.48 2233.69 1272.61 2233.69 1272.61L2176.49 1248.31L2205.21 1197.99Z" fill="#ADC4CB"/>
<path d="M2233.69 1273.61C2233.55 1273.61 2233.42 1273.58 2233.3 1273.53L2176.1 1249.23C2175.84 1249.12 2175.63 1248.9 2175.54 1248.63C2175.45 1248.36 2175.48 1248.06 2175.62 1247.81L2204.34 1197.49C2204.5 1197.22 2204.76 1197.04 2205.06 1197C2205.36 1196.95 2205.67 1197.05 2205.89 1197.25C2206.15 1197.5 2231.84 1221.87 2234.88 1260.41C2235.28 1265.42 2234.71 1272.4 2234.68 1272.69C2234.66 1273.01 2234.48 1273.3 2234.2 1273.46C2234.05 1273.56 2233.87 1273.61 2233.69 1273.61ZM2177.91 1247.83L2232.79 1271.14C2232.93 1268.84 2233.17 1264.12 2232.89 1260.57C2230.23 1226.92 2209.98 1204.3 2205.43 1199.62L2177.91 1247.83Z" fill="#252627"/>
<path d="M1164.42 1975.39H1315.66L1315.64 1799.07H1163.99L1164.42 1975.39Z" fill="#87C159"/>
<path d="M1315.66 1976.39H1164.42C1163.87 1976.39 1163.42 1975.94 1163.42 1975.39L1162.99 1799.07C1162.99 1798.8 1163.1 1798.55 1163.28 1798.36C1163.47 1798.17 1163.73 1798.07 1163.99 1798.07H1315.64C1316.19 1798.07 1316.64 1798.52 1316.64 1799.07L1316.66 1975.39C1316.66 1975.66 1316.55 1975.91 1316.37 1976.1C1316.18 1976.28 1315.92 1976.39 1315.66 1976.39ZM1165.42 1974.39H1314.66L1314.64 1800.07H1165L1165.42 1974.39Z" fill="#252627"/>
<path d="M1315.64 1799.48C1315.64 1799.48 1315.79 1740.9 1315.8 1711.84C1265.11 1711.77 1163.53 1731.32 1163.99 1799.48H1315.64Z" fill="#ADFF2F"/>
<path d="M1315.64 1800.48H1163.99C1163.44 1800.48 1163 1800.04 1162.99 1799.49C1162.87 1782 1169.4 1766.5 1182.41 1753.43C1189.99 1745.81 1199.82 1738.98 1211.63 1733.13C1222.07 1727.96 1234.06 1723.55 1247.28 1720.01C1269.05 1714.18 1293.89 1710.84 1315.5 1710.84H1315.8C1316.36 1710.84 1316.8 1711.29 1316.8 1711.84C1316.79 1740.57 1316.64 1798.9 1316.64 1799.48C1316.64 1800.03 1316.19 1800.48 1315.64 1800.48ZM1164.99 1798.48H1314.64C1314.66 1790.72 1314.79 1739.78 1314.8 1712.84C1293.53 1712.91 1269.17 1716.21 1247.8 1721.94C1219.93 1729.4 1197.81 1740.78 1183.82 1754.84C1171.46 1767.27 1165.13 1781.95 1164.99 1798.48Z" fill="#252627"/>
<path d="M1329.01 1959.78L1435.18 1898.33L1435.49 1759.58L1329.04 1820.87L1329.01 1959.78Z" fill="#252627"/>
<path d="M1329.01 1960.78C1328.84 1960.78 1328.67 1960.74 1328.51 1960.65C1328.2 1960.47 1328.01 1960.14 1328.01 1959.78L1328.04 1820.87C1328.04 1820.51 1328.23 1820.18 1328.54 1820L1434.99 1758.71C1435.3 1758.54 1435.68 1758.54 1435.99 1758.71C1436.3 1758.89 1436.49 1759.22 1436.49 1759.58L1436.18 1898.33C1436.18 1898.68 1435.99 1899.01 1435.68 1899.19L1329.52 1960.64C1329.36 1960.73 1329.19 1960.78 1329.01 1960.78ZM1330.04 1821.45L1330.01 1958.05L1434.18 1897.75L1434.49 1761.31L1330.04 1821.45Z" fill="#252627"/>
<path d="M1435.49 1759.58C1403.58 1741.17 1365.5 1734.17 1329.01 1734.04L1329.04 1820.87L1435.49 1759.58Z" fill="white"/>
<path d="M1329.04 1821.87C1328.86 1821.87 1328.69 1821.82 1328.54 1821.73C1328.23 1821.56 1328.04 1821.23 1328.04 1820.87L1328.01 1734.04C1328.01 1733.77 1328.11 1733.52 1328.3 1733.33C1328.49 1733.14 1328.75 1733.07 1329.01 1733.04C1370.14 1733.19 1407.13 1742.06 1435.99 1758.71C1436.3 1758.89 1436.49 1759.22 1436.49 1759.58C1436.49 1759.94 1436.3 1760.27 1435.99 1760.45L1329.54 1821.74C1329.38 1821.82 1329.21 1821.87 1329.04 1821.87ZM1330.01 1735.05L1330.04 1819.14L1433.48 1759.58C1405.38 1743.8 1369.67 1735.32 1330.01 1735.05Z" fill="#252627"/>
<path d="M1323.46 1963.93L1430.13 2025.69L1430.44 1904.71L1323.48 1843.12L1323.46 1963.93Z" fill="#ADFF2F"/>
<path d="M1430.13 2026.69C1429.96 2026.69 1429.79 2026.64 1429.63 2026.55L1322.96 1964.8C1322.65 1964.62 1322.46 1964.29 1322.46 1963.93L1322.48 1843.12C1322.48 1842.76 1322.67 1842.43 1322.98 1842.26C1323.29 1842.08 1323.67 1842.08 1323.98 1842.25L1430.94 1903.84C1431.25 1904.02 1431.44 1904.35 1431.44 1904.71L1431.13 2025.69C1431.13 2026.04 1430.94 2026.37 1430.63 2026.55C1430.48 2026.64 1430.3 2026.69 1430.13 2026.69ZM1324.46 1963.36L1429.14 2023.95L1429.44 1905.29L1324.48 1844.85L1324.46 1963.36Z" fill="#252627"/>
<path d="M1474.44 1957.15C1474.7 1959.21 1474.1 1971.85 1472.66 1976.94C1466.72 1997.87 1449.4 2014.48 1430.94 2025.24C1430.67 2025.38 1430.4 2025.54 1430.13 2025.69L1430.55 1920.11L1431.01 1781.25C1450.75 1792.64 1474.84 1842.58 1474.84 1842.58L1474.42 1957.03V1957.1L1474.44 1957.15Z" fill="#252627"/>
<path d="M1430.13 2026.69C1429.95 2026.69 1429.77 2026.64 1429.62 2026.55C1429.31 2026.37 1429.13 2026.04 1429.13 2025.69L1429.55 1920.11L1430.01 1781.24C1430.01 1780.89 1430.2 1780.56 1430.51 1780.38C1430.82 1780.2 1431.2 1780.2 1431.51 1780.38C1451.29 1791.79 1474.75 1840.1 1475.74 1842.15C1475.81 1842.29 1475.84 1842.44 1475.84 1842.59L1475.42 1957C1475.42 1957.01 1475.42 1957.01 1475.43 1957.02C1475.69 1959.1 1475.14 1971.86 1473.62 1977.21C1470.53 1988.09 1460.95 2008.91 1431.45 2026.1L1430.6 2026.57C1430.46 2026.65 1430.29 2026.69 1430.13 2026.69ZM1432.01 1783.04L1431.55 1920.12L1431.14 2023.97C1459.48 2007.22 1468.71 1987.17 1471.69 1976.67C1473.11 1971.68 1473.68 1959.44 1473.45 1957.33C1473.43 1957.25 1473.42 1957.18 1473.42 1957.1L1473.84 1842.81C1472.17 1839.4 1450.33 1795.29 1432.01 1783.04Z" fill="#252627"/>
<path d="M1431.18 1904.3C1467.12 1883.76 1490.76 1843.49 1461.57 1806.54C1453.32 1796.1 1442.47 1787.87 1431.01 1781.24C1395.21 1801.87 1359.77 1823.37 1323.48 1843.12L1430.44 1904.71L1431.18 1904.3Z" fill="white"/>
<path d="M1430.44 1905.71C1430.27 1905.71 1430.09 1905.66 1429.94 1905.57L1322.98 1843.99C1322.67 1843.81 1322.48 1843.47 1322.48 1843.11C1322.48 1842.75 1322.68 1842.42 1323 1842.24C1347.41 1828.96 1371.83 1814.65 1395.44 1800.81C1406.92 1794.08 1418.8 1787.13 1430.51 1780.38C1430.82 1780.2 1431.2 1780.2 1431.51 1780.38C1444.53 1787.9 1454.9 1796.49 1462.35 1805.92C1473.51 1820.05 1477.78 1835.88 1474.71 1851.73C1470.77 1872.04 1454.68 1892.02 1431.67 1905.17C1431.67 1905.17 1431.67 1905.17 1431.66 1905.17L1430.93 1905.58C1430.78 1905.67 1430.61 1905.71 1430.44 1905.71ZM1325.53 1843.14L1430.45 1903.56L1430.68 1903.43C1453.19 1890.56 1468.92 1871.09 1472.75 1851.34C1475.75 1835.87 1471.72 1821.01 1460.78 1807.16C1453.58 1798.05 1443.57 1789.72 1431.01 1782.4C1419.46 1789.05 1407.77 1795.91 1396.45 1802.54C1373.33 1816.09 1349.44 1830.09 1325.53 1843.14Z" fill="#252627"/>
<path d="M1421.55 1924.4V1924.47L1421.35 2029.55L1418.55 2031.12C1382.84 2050.49 1340.37 2056.67 1300.19 2054.43C1252.26 2051.65 1165.18 2029.89 1164.29 1968.02L1163.99 1865.76L1163.97 1863.06L1212.59 1876.75L1369.35 1904.34L1421.55 1924.4Z" fill="white"/>
<path d="M1315.8 2055.86C1310.27 2055.86 1305.02 2055.7 1300.14 2055.42C1288.84 2054.77 1249.27 2051.31 1214.16 2034.28C1181.27 2018.33 1163.68 1995.42 1163.29 1968.04L1162.98 1863.06C1162.97 1862.75 1163.12 1862.45 1163.37 1862.26C1163.62 1862.07 1163.94 1862.01 1164.25 1862.1L1212.81 1875.77L1369.53 1903.35C1369.59 1903.36 1369.65 1903.38 1369.71 1903.4L1421.91 1923.46C1422.29 1923.61 1422.55 1923.98 1422.55 1924.4V1924.47L1422.35 2029.56C1422.34 2029.92 1422.15 2030.25 1421.83 2030.43L1419.03 2031.99C1383.99 2051.01 1345.72 2055.86 1315.8 2055.86ZM1164.98 1864.38L1164.99 1865.75L1165.29 1968.02C1166.17 2029.44 1253.95 2050.75 1300.25 2053.43C1331.31 2055.16 1376.96 2052.55 1418.07 2030.24L1420.35 2028.97L1420.55 1925.08L1369.09 1905.3L1212.42 1877.73C1212.39 1877.72 1212.35 1877.72 1212.32 1877.71L1164.98 1864.38Z" fill="#252627"/>
<path d="M1421.62 1924.43C1421.6 1924.44 1421.57 1924.45 1421.55 1924.47C1400.86 1936.22 1377.6 1943.13 1354.15 1946.73C1310.97 1953.36 1264.13 1949.66 1223.84 1932.02C1196.61 1920.1 1166.05 1898.02 1163.99 1865.76C1163.92 1864.87 1163.88 1863.97 1163.87 1863.06H1315.08L1379.02 1899.9L1421.55 1924.4L1421.62 1924.43Z" fill="white"/>
<path d="M1314.02 1950.81C1281.62 1950.81 1250.41 1944.74 1223.44 1932.94C1206.07 1925.33 1165.4 1903.57 1162.99 1865.82C1162.92 1864.98 1162.89 1864.08 1162.87 1863.07C1162.87 1862.81 1162.97 1862.55 1163.16 1862.36C1163.35 1862.17 1163.61 1862.06 1163.87 1862.06H1315.08C1315.26 1862.06 1315.43 1862.11 1315.58 1862.19L1422.05 1923.53C1422.37 1923.71 1422.59 1924.07 1422.59 1924.44C1422.58 1924.8 1422.4 1925.15 1422.08 1925.32C1422.07 1925.32 1422 1925.36 1422 1925.36C1402.87 1936.23 1380.07 1943.76 1354.3 1947.72C1340.82 1949.79 1327.32 1950.81 1314.02 1950.81ZM1164.9 1864.06C1164.92 1864.63 1164.94 1865.17 1164.98 1865.68C1167.33 1902.35 1207.21 1923.65 1224.24 1931.11C1261.94 1947.6 1308.02 1952.8 1354 1945.74C1378.87 1941.92 1400.93 1934.75 1419.59 1924.42L1314.81 1864.06H1164.9V1864.06Z" fill="#252627"/>
<path d="M1819.6 1524.38C1819.43 1524.38 1819.25 1524.33 1819.1 1524.24L975.113 1036.79C974.805 1036.61 974.614 1036.28 974.613 1035.92L973.199 518.83C973.197 518.278 973.644 517.829 974.196 517.827H974.199C974.75 517.827 975.198 518.273 975.199 518.824L976.612 1035.34L1820.1 1522.51C1820.58 1522.79 1820.74 1523.4 1820.46 1523.88C1820.28 1524.2 1819.94 1524.38 1819.6 1524.38Z" fill="#252627"/>
<path d="M963.02 542.659L974.198 518.828L987.203 542.659H963.02Z" fill="#252627"/>
<path d="M988.046 543.159H962.233L974.165 517.722L988.046 543.159ZM963.807 542.159H986.361L974.232 519.933L963.807 542.159Z" fill="#252627"/>
<path d="M1819.6 1524.38C1819.56 1524.38 1819.53 1524.37 1819.49 1524.37L1791.13 1521.41C1790.58 1521.36 1790.18 1520.86 1790.24 1520.32C1790.29 1519.77 1790.78 1519.37 1791.33 1519.42L1818.07 1522.21L1809.43 1500C1809.23 1499.48 1809.49 1498.9 1810 1498.7C1810.52 1498.5 1811.1 1498.76 1811.3 1499.27L1820.53 1523.02C1820.65 1523.34 1820.6 1523.71 1820.39 1523.98C1820.2 1524.23 1819.91 1524.38 1819.6 1524.38Z" fill="#252627"/>
<path d="M1017.6 919.987L1038.22 930.624L1017.85 1012.56L977.808 1035.58L977.524 942.985L1017.6 919.987Z" fill="white"/>
<path d="M977.807 1036.58C977.635 1036.58 977.462 1036.53 977.307 1036.44C976.998 1036.26 976.808 1035.93 976.807 1035.58L976.524 942.988C976.523 942.629 976.715 942.296 977.026 942.117L1017.11 919.118C1017.4 918.949 1017.76 918.941 1018.06 919.097L1038.68 929.734C1039.09 929.946 1039.3 930.414 1039.19 930.864L1018.82 1012.8C1018.76 1013.06 1018.59 1013.29 1018.35 1013.42L978.305 1036.44C978.152 1036.53 977.979 1036.58 977.807 1036.58ZM978.526 943.563L978.802 1033.85L1016.98 1011.9L1037.06 931.15L1017.63 921.125L978.526 943.563Z" fill="#252627"/>
<path d="M1599.06 1395.36L1599 1395.33L977.557 1035.58L1017.85 1012.41L1017.91 1012.45L1639.36 1371.89L1599.06 1395.36ZM978.058 1035.58L1599.06 1395.07L1638.86 1371.89L1017.85 1012.7L978.058 1035.58Z" fill="#252627"/>
<path d="M1639.11 1371.89L1639.4 1278.76L1599.32 1302.06L1599.06 1395.22L1639.11 1371.89Z" fill="#252627"/>
<path d="M1599.06 1396.22C1598.89 1396.22 1598.72 1396.17 1598.56 1396.08C1598.25 1395.91 1598.06 1395.57 1598.06 1395.22L1598.32 1302.06C1598.32 1301.71 1598.51 1301.38 1598.81 1301.2L1638.89 1277.89C1639.2 1277.71 1639.59 1277.71 1639.9 1277.89C1640.21 1278.07 1640.4 1278.4 1640.4 1278.76L1640.11 1371.89C1640.11 1372.25 1639.92 1372.58 1639.61 1372.75L1599.57 1396.08C1599.41 1396.17 1599.24 1396.22 1599.06 1396.22ZM1600.32 1302.64L1600.07 1393.48L1638.11 1371.31L1638.39 1280.5L1600.32 1302.64Z" fill="#252627"/>
<path d="M1314.6 834.79C1301.06 839.893 1293.94 853.409 1289.71 865.679C1283.08 884.886 1278.72 904.792 1272.19 924.03C1267.94 936.57 1261.97 956.267 1248.23 961.704C1233.97 967.344 1219.47 953.382 1211.42 943.23C1185.57 910.65 1178.54 865.474 1163.2 827.709C1154.99 807.491 1136.24 769.849 1112.99 769.849C1102.26 769.849 1065.56 796.004 1065.56 796.004C1065.56 796.004 1107.13 816.435 1116.98 836.909C1135.36 875.094 1141.86 918.656 1163.76 955.206C1171.2 967.621 1184.26 985.327 1200.37 986.064C1214.85 986.727 1222.53 971.083 1227.33 959.794C1235.05 941.679 1239.35 922.215 1244.94 903.394C1249.43 888.311 1255.79 866.709 1267.86 855.576L1314.6 834.79Z" fill="white"/>
<path d="M1201.29 987.085C1200.97 987.085 1200.65 987.078 1200.33 987.063C1187.78 986.488 1174.84 975.65 1162.9 955.719C1150.48 934.979 1142.88 911.659 1135.53 889.106C1129.88 871.797 1124.05 853.899 1116.08 837.341C1106.5 817.415 1065.54 797.103 1065.12 796.9C1064.81 796.745 1064.6 796.434 1064.57 796.084C1064.54 795.734 1064.7 795.393 1064.98 795.188C1066.49 794.113 1102.07 768.848 1112.99 768.848C1137.7 768.848 1156.98 809.747 1164.13 827.331C1169.03 839.397 1173.16 852.464 1177.16 865.101C1185.79 892.361 1194.7 920.548 1212.2 942.607C1215.82 947.162 1221.17 953.045 1227.36 957.132C1232.39 944.786 1236 931.679 1239.5 918.979C1240.94 913.761 1242.42 908.365 1243.99 903.107L1244.07 902.824C1248.67 887.321 1254.98 866.089 1267.18 854.838C1267.26 854.764 1267.35 854.704 1267.45 854.659L1310.84 835.367C1311.95 834.797 1313.08 834.292 1314.25 833.852C1314.76 833.661 1315.32 833.908 1315.53 834.408C1315.73 834.908 1315.5 835.482 1315.01 835.701L1311.72 837.162C1302.62 841.874 1295.71 851.352 1290.65 866.002C1287.28 875.793 1284.44 885.948 1281.69 895.768C1279.06 905.183 1276.34 914.919 1273.14 924.348L1272.45 926.382C1268.06 939.434 1262.05 957.309 1248.6 962.63C1241.55 965.415 1234.55 963.679 1228.31 960.058C1228.29 960.1 1228.27 960.141 1228.25 960.183C1222.57 973.531 1214.93 987.083 1201.29 987.085ZM1067.51 795.861C1075.17 799.79 1108.95 817.9 1117.89 836.474C1125.91 853.152 1131.77 871.115 1137.43 888.486C1144.74 910.933 1152.31 934.144 1164.62 954.69C1176.2 974.018 1188.58 984.521 1200.42 985.063C1213.44 985.668 1220.87 972.425 1226.41 959.4C1226.47 959.267 1226.53 959.134 1226.58 959.001C1220.02 954.755 1214.42 948.614 1210.64 943.85C1192.91 921.503 1183.93 893.136 1175.25 865.704C1171.27 853.104 1167.14 840.075 1162.27 828.084C1155.28 810.875 1136.48 770.848 1112.99 770.848C1103.85 770.849 1074.22 791.169 1067.51 795.861ZM1229.08 958.208C1234.92 961.651 1241.42 963.322 1247.86 960.773C1260.45 955.794 1266.29 938.428 1270.55 925.748L1271.24 923.709C1274.42 914.332 1277.14 904.622 1279.76 895.233C1282.52 885.384 1285.37 875.2 1288.76 865.353C1292.45 854.679 1297.12 846.64 1302.9 841.088L1268.41 856.422C1256.7 867.33 1250.51 888.168 1245.99 903.396L1245.9 903.678C1244.35 908.917 1242.86 914.303 1241.43 919.512C1237.89 932.377 1234.23 945.659 1229.08 958.208Z" fill="#252627"/>
<path d="M1520.85 1030.52C1504.9 1032.7 1493.23 1050.52 1481.33 1065.59C1473.67 1075.29 1464.3 1084.71 1450.95 1083.6C1431.59 1081.99 1418.28 1063.81 1410.45 1047.92C1397.72 1022.11 1386.61 940.53 1365.69 884.794C1352.26 849.037 1333.83 823.534 1310.26 830.986L1272.04 853.023C1282.11 892.843 1349.04 1014.65 1362.97 1053.42C1372.89 1081.02 1403.46 1128.06 1435.04 1096.04C1448.34 1082.56 1458.97 1057.16 1478 1053.61L1520.85 1030.52Z" fill="white"/>
<path d="M1412.97 1107.8C1411.09 1107.8 1409.21 1107.59 1407.31 1107.17C1384.91 1102.24 1367.9 1070.07 1362.03 1053.75C1356.15 1037.38 1340.63 1005.84 1324.19 972.445C1302.02 927.39 1276.9 876.323 1271.07 853.267C1270.96 852.833 1271.15 852.379 1271.54 852.155L1309.76 830.118C1309.83 830.082 1309.89 830.053 1309.96 830.031C1331.15 823.33 1350.74 842.145 1366.62 884.441C1377.59 913.649 1385.81 949.714 1393.07 981.535C1399.64 1010.37 1405.32 1035.27 1411.34 1047.48C1422.62 1070.34 1435.28 1078.88 1445.35 1081.6C1445.72 1081.09 1446.09 1080.58 1446.46 1080.07C1455.26 1067.85 1464.37 1055.22 1477.66 1052.65L1501.77 1039.66C1507.49 1034.36 1513.68 1030.49 1520.72 1029.53C1521.2 1029.47 1521.65 1029.75 1521.8 1030.21C1521.95 1030.67 1521.75 1031.17 1521.33 1031.4L1502.96 1041.3C1497.18 1046.68 1491.85 1053.61 1486.61 1060.42C1485.11 1062.37 1483.62 1064.31 1482.12 1066.21C1474.43 1075.95 1464.7 1085.75 1450.86 1084.59C1449.38 1084.47 1447.82 1084.24 1446.18 1083.87C1442.73 1088.62 1439.37 1093.07 1435.75 1096.74C1428.5 1104.09 1420.86 1107.8 1412.97 1107.8ZM1273.19 853.507C1279.31 876.702 1304.1 927.069 1325.99 971.561C1342.45 1005.01 1357.99 1036.6 1363.91 1053.07C1367.88 1064.1 1374.1 1075.66 1380.97 1084.77C1389.59 1096.18 1398.84 1103.26 1407.74 1105.21C1416.92 1107.24 1425.87 1103.91 1434.33 1095.33C1437.69 1091.92 1440.85 1087.78 1444.1 1083.32C1433.7 1080.27 1420.87 1071.32 1409.55 1048.36C1403.42 1035.94 1397.72 1010.93 1391.12 981.978C1383.88 950.22 1375.67 914.224 1364.75 885.143C1354 856.497 1335.89 824.03 1310.67 831.904L1273.19 853.507ZM1447.46 1082.1C1448.7 1082.34 1449.89 1082.51 1451.03 1082.6C1463.89 1083.67 1472.82 1074.76 1480.55 1064.97C1482.04 1063.07 1483.53 1061.14 1485.03 1059.2C1488.91 1054.15 1492.84 1049.05 1496.98 1044.51L1478.47 1054.48C1478.38 1054.53 1478.28 1054.57 1478.18 1054.59C1465.59 1056.94 1456.69 1069.29 1448.08 1081.24C1447.87 1081.52 1447.66 1081.81 1447.46 1082.1Z" fill="#252627"/>
<path d="M1474.54 1054.29C1479.19 1053.42 1487.81 1053.17 1493.63 1055.41C1533.31 1070.66 1542.06 1130.26 1549.75 1166.52C1558.7 1208.72 1563.12 1273.06 1599.32 1302.06L1639.4 1278.76C1606.75 1252.59 1601.01 1197.21 1593.11 1158.88C1585.23 1120.6 1579.04 1064.4 1545.65 1038.96C1536.22 1031.77 1523.64 1025.76 1510.32 1032.86L1474.54 1054.29Z" fill="white"/>
<path d="M1599.32 1303.06C1599.1 1303.06 1598.87 1302.99 1598.69 1302.85C1568.77 1278.87 1560.26 1230.44 1553.41 1191.52C1551.86 1182.7 1550.39 1174.37 1548.77 1166.72C1548.12 1163.66 1547.46 1160.42 1546.78 1157.06C1539.31 1120.37 1529.09 1070.11 1493.28 1056.34C1487.49 1054.12 1478.83 1054.51 1474.72 1055.27C1474.25 1055.36 1473.78 1055.1 1473.61 1054.64C1473.43 1054.19 1473.61 1053.68 1474.03 1053.43L1509.81 1032C1521.05 1026.01 1532.96 1028.03 1546.26 1038.16C1575.5 1060.44 1584.08 1105.96 1590.96 1142.53C1592.03 1148.21 1593.04 1153.58 1594.09 1158.68C1595.21 1164.11 1596.28 1169.82 1597.41 1175.87C1604.04 1211.46 1612.29 1255.75 1640.02 1277.98C1640.28 1278.18 1640.42 1278.5 1640.39 1278.83C1640.37 1279.16 1640.18 1279.46 1639.9 1279.62L1599.82 1302.93C1599.66 1303.02 1599.49 1303.06 1599.32 1303.06ZM1482.17 1052.66C1486.12 1052.66 1490.49 1053.13 1493.99 1054.47C1530.82 1068.64 1541.18 1119.51 1548.74 1156.66C1549.42 1160.02 1550.08 1163.25 1550.73 1166.31C1552.36 1173.99 1553.82 1182.33 1555.38 1191.17C1562.12 1229.53 1570.51 1277.2 1599.41 1300.85L1637.65 1278.62C1610.24 1255.65 1602.04 1211.67 1595.44 1176.24C1594.31 1170.2 1593.25 1164.5 1592.13 1159.08C1591.08 1153.97 1590.07 1148.59 1589 1142.9C1582.17 1106.66 1573.68 1061.56 1545.04 1039.75C1532.43 1030.15 1521.23 1028.18 1510.79 1033.74L1479.04 1052.76C1480.03 1052.7 1481.09 1052.66 1482.17 1052.66Z" fill="#252627"/>
<path d="M1599.06 1395.22L1599.32 1302.06C1564.48 1274.14 1559.52 1213.27 1551.01 1172.54C1543.2 1135.11 1534.38 1067.33 1490.86 1054.41C1459.74 1045.16 1449.25 1086.6 1429.44 1101.09C1389.42 1130.37 1362.89 1056.26 1355.82 1030.33C1344.16 987.628 1339.25 942.86 1323.92 901.197C1317.32 883.283 1304.07 852.985 1281.41 851.355C1262.25 849.978 1254.12 875.376 1249.29 889.554C1242 910.908 1230.45 999.378 1192.63 984.033C1172.32 975.792 1160.71 951.755 1152.7 932.922C1142.26 908.35 1135.26 882.489 1125.73 857.574C1117.88 837.042 1108.17 813.664 1089.71 800.34C1068.67 785.148 1054.81 800.423 1046.86 820.528C1038.4 841.908 1034.35 864.953 1028.92 887.219C1024.59 904.948 1019.94 937.566 1001.82 947.267C993.386 951.781 984.783 948.119 977.521 942.985L977.805 1035.58L1599.06 1395.22Z" fill="#ADFF2F"/>
<path d="M1599.06 1396.22C1598.89 1396.22 1598.72 1396.17 1598.56 1396.08L977.307 1036.44C976.999 1036.26 976.809 1035.93 976.808 1035.58L976.525 942.988C976.524 942.614 976.732 942.27 977.064 942.097C977.396 941.924 977.797 941.951 978.102 942.168C987.127 948.548 994.731 949.928 1001.35 946.385C1016.56 938.242 1022.07 913.312 1026.1 895.109C1026.74 892.195 1027.35 889.443 1027.95 886.981C1029.29 881.499 1030.56 875.868 1031.8 870.422C1035.6 853.666 1039.53 836.339 1045.93 820.159C1051.7 805.573 1059.38 796.511 1068.12 793.954C1074.95 791.958 1082.41 793.834 1090.3 799.528C1108.53 812.689 1118.26 835.242 1126.67 857.215C1130.71 867.79 1134.36 878.704 1137.89 889.258C1142.67 903.586 1147.62 918.403 1153.62 932.529C1169.28 969.369 1182.32 978.768 1193.01 983.105C1198.92 985.504 1204.28 985.389 1209.39 982.756C1227.9 973.22 1237.37 933.499 1243.64 907.214C1245.42 899.73 1246.96 893.266 1248.34 889.229L1248.71 888.132C1253.7 873.48 1262.03 848.963 1281.48 850.356C1298.62 851.588 1312.81 868.105 1324.86 900.85C1334.18 926.201 1339.75 953.098 1345.13 979.109C1348.61 995.92 1352.21 1013.3 1356.78 1030.06C1358.66 1036.93 1363.98 1054.76 1372.88 1071.99C1382.41 1090.46 1392.68 1101.72 1403.38 1105.46C1411.64 1108.35 1420.21 1106.61 1428.85 1100.29C1435.34 1095.53 1440.76 1087.91 1446.5 1079.83C1457.93 1063.74 1469.75 1047.09 1491.15 1053.45C1530.99 1065.28 1542.21 1122.62 1549.64 1160.56C1550.46 1164.73 1551.23 1168.68 1551.99 1172.34C1553.41 1179.13 1554.72 1186.43 1556.11 1194.15C1562.83 1231.62 1571.2 1278.25 1599.94 1301.28C1600.18 1301.47 1600.32 1301.76 1600.32 1302.07L1600.06 1395.22C1600.06 1395.58 1599.87 1395.91 1599.56 1396.09C1599.41 1396.17 1599.24 1396.22 1599.06 1396.22ZM978.806 1035L1598.07 1393.49L1598.32 1302.54C1569.29 1278.94 1560.89 1232.14 1554.14 1194.5C1552.76 1186.79 1551.45 1179.51 1550.04 1172.74C1549.27 1169.07 1548.5 1165.12 1547.68 1160.94C1540.34 1123.47 1529.26 1066.85 1490.58 1055.36C1470.56 1049.42 1459.15 1065.47 1448.13 1080.99C1442.55 1088.84 1436.79 1096.96 1430.03 1101.9C1420.83 1108.64 1411.64 1110.47 1402.72 1107.35C1374.4 1097.45 1357.88 1041.67 1354.85 1030.59C1350.26 1013.77 1346.66 996.357 1343.18 979.516C1337.81 953.577 1332.26 926.754 1322.98 901.543C1311.23 869.614 1297.61 853.523 1281.34 852.354C1263.44 851.066 1255.41 874.674 1250.61 888.779L1250.24 889.878C1248.89 893.825 1247.36 900.246 1245.59 907.681C1239.24 934.321 1229.64 974.58 1210.31 984.536C1204.73 987.412 1198.65 987.556 1192.26 984.96C1172.54 976.959 1160.73 954.363 1151.79 933.314C1145.75 919.115 1140.79 904.26 1135.99 889.894C1132.47 879.359 1128.83 868.466 1124.8 857.931C1116.51 836.241 1106.92 813.989 1089.13 801.151C1081.77 795.836 1074.89 794.062 1068.69 795.875C1058.41 798.879 1051.65 811.14 1047.79 820.896C1041.45 836.933 1037.54 854.183 1033.75 870.865C1032.51 876.319 1031.24 881.959 1029.89 887.457C1029.3 889.897 1028.69 892.639 1028.05 895.542C1023.94 914.124 1018.32 939.572 1002.3 948.149C995.346 951.869 987.558 950.803 978.531 944.881L978.806 1035Z" fill="#252627"/>
<path d="M1492.32 915.563L1518.15 717.078Z" fill="white"/>
<path d="M1492.32 916.563C1492.28 916.563 1492.24 916.56 1492.19 916.555C1491.64 916.484 1491.26 915.982 1491.33 915.434L1517.16 716.949C1517.23 716.402 1517.73 716.016 1518.28 716.086C1518.83 716.157 1519.21 716.659 1519.14 717.207L1493.31 915.692C1493.25 916.196 1492.82 916.563 1492.32 916.563Z" fill="#252627"/>
<path d="M1537.35 987.353L1563.17 788.868Z" fill="white"/>
<path d="M1537.35 988.352C1537.31 988.352 1537.26 988.349 1537.22 988.344C1536.67 988.273 1536.28 987.771 1536.36 987.223L1562.18 788.738C1562.26 788.191 1562.76 787.805 1563.31 787.875C1563.85 787.946 1564.24 788.448 1564.17 788.996L1538.34 987.481C1538.27 987.985 1537.84 988.352 1537.35 988.352Z" fill="#252627"/>
<path d="M1596.26 909.478L1622.09 710.994Z" fill="white"/>
<path d="M1596.27 910.478C1596.22 910.478 1596.18 910.475 1596.14 910.47C1595.59 910.399 1595.2 909.897 1595.27 909.349L1621.1 710.864C1621.17 710.317 1621.67 709.931 1622.22 710.001C1622.77 710.072 1623.16 710.574 1623.09 711.122L1597.26 909.607C1597.19 910.111 1596.76 910.478 1596.27 910.478Z" fill="#252627"/>
<path d="M1646.03 959.268L1671.85 760.783Z" fill="white"/>
<path d="M1646.03 960.268C1645.98 960.268 1645.94 960.265 1645.9 960.26C1645.35 960.189 1644.96 959.687 1645.03 959.139L1670.86 760.654C1670.93 760.106 1671.43 759.719 1671.98 759.791C1672.53 759.862 1672.92 760.364 1672.85 760.912L1647.02 959.397C1646.95 959.901 1646.52 960.268 1646.03 960.268Z" fill="#252627"/>
<path d="M1694.43 1001.33L1720.26 802.849Z" fill="white"/>
<path d="M1694.43 1002.33C1694.39 1002.33 1694.34 1002.33 1694.3 1002.33C1693.75 1002.25 1693.37 1001.75 1693.44 1001.2L1719.27 802.72C1719.34 802.173 1719.84 801.787 1720.39 801.857C1720.93 801.928 1721.32 802.43 1721.25 802.978L1695.42 1001.46C1695.35 1001.97 1694.92 1002.33 1694.43 1002.33Z" fill="#252627"/>
<path d="M1736.44 1076.46L1762.27 877.979Z" fill="white"/>
<path d="M1736.44 1077.46C1736.4 1077.46 1736.35 1077.46 1736.31 1077.46C1735.76 1077.38 1735.38 1076.88 1735.45 1076.33L1761.28 877.85C1761.35 877.302 1761.85 876.916 1762.4 876.987C1762.94 877.058 1763.33 877.56 1763.26 878.108L1737.43 1076.59C1737.36 1077.1 1736.93 1077.46 1736.44 1077.46Z" fill="#252627"/>
<path d="M1640.72 741.326L1621.23 880.503L1585.64 860.026L1605.03 720.922L1640.72 741.326Z" fill="#ADC4CB"/>
<path d="M1621.23 881.503C1621.06 881.503 1620.89 881.458 1620.73 881.37L1585.14 860.892C1584.78 860.689 1584.59 860.291 1584.65 859.887L1604.04 720.784C1604.09 720.455 1604.29 720.171 1604.59 720.024C1604.89 719.878 1605.24 719.889 1605.53 720.054L1641.21 740.457C1641.57 740.66 1641.77 741.059 1641.71 741.464L1622.22 880.641C1622.17 880.97 1621.97 881.255 1621.67 881.401C1621.53 881.469 1621.38 881.503 1621.23 881.503ZM1586.72 859.495L1620.45 878.898L1639.63 741.858L1605.82 722.524L1586.72 859.495Z" fill="#252627"/>
<path d="M1576.81 842.369L1559.23 968.629L1523.79 948.137L1541.29 821.943L1576.81 842.369Z" fill="white"/>
<path d="M1559.23 969.629C1559.05 969.629 1558.88 969.584 1558.73 969.495L1523.29 949.003C1522.94 948.799 1522.74 948.403 1522.8 948L1540.3 821.806C1540.34 821.477 1540.55 821.192 1540.85 821.046C1541.15 820.9 1541.5 820.912 1541.79 821.077L1577.31 841.502C1577.66 841.705 1577.86 842.103 1577.8 842.507L1560.22 968.767C1560.17 969.097 1559.96 969.382 1559.67 969.528C1559.53 969.595 1559.38 969.629 1559.23 969.629ZM1524.87 947.608L1558.44 967.019L1575.73 842.898L1542.07 823.548L1524.87 947.608Z" fill="#252627"/>
<path d="M1532.42 770.313L1515.72 890.914L1480.34 870.497L1496.95 749.96L1532.42 770.313Z" fill="white"/>
<path d="M1515.72 891.914C1515.55 891.914 1515.38 891.869 1515.22 891.78L1479.84 871.363C1479.49 871.16 1479.3 870.763 1479.35 870.36L1495.96 749.823C1496.01 749.494 1496.21 749.208 1496.51 749.062C1496.81 748.916 1497.16 748.927 1497.45 749.092L1532.91 769.445C1533.27 769.648 1533.46 770.046 1533.41 770.45L1516.72 891.051C1516.67 891.381 1516.46 891.666 1516.16 891.812C1516.03 891.88 1515.88 891.914 1515.72 891.914ZM1481.42 869.967L1514.94 889.305L1531.33 770.844L1497.74 751.565L1481.42 869.967Z" fill="#252627"/>
<path d="M1777.8 936.714L1762.59 1043.35L1726.79 1022.68L1741.93 916.106L1777.8 936.714Z" fill="white"/>
<path d="M1762.59 1044.35C1762.42 1044.35 1762.25 1044.3 1762.09 1044.21L1726.29 1023.55C1725.94 1023.35 1725.75 1022.95 1725.8 1022.54L1740.94 915.965C1740.98 915.637 1741.19 915.352 1741.49 915.207C1741.78 915.061 1742.14 915.073 1742.42 915.238L1778.3 935.847C1778.65 936.051 1778.85 936.45 1778.79 936.855L1763.58 1043.49C1763.53 1043.82 1763.33 1044.1 1763.03 1044.25C1762.89 1044.31 1762.74 1044.35 1762.59 1044.35ZM1727.88 1022.15L1761.81 1041.74L1776.71 937.244L1742.71 917.709L1727.88 1022.15Z" fill="#252627"/>
<path d="M1683.58 826.069L1669.97 922.624L1634.3 902.091L1647.84 805.587L1683.58 826.069Z" fill="white"/>
<path d="M1669.97 923.624C1669.8 923.624 1669.63 923.579 1669.47 923.491L1633.8 902.959C1633.45 902.755 1633.26 902.357 1633.31 901.953L1646.85 805.449C1646.9 805.12 1647.1 804.836 1647.4 804.69C1647.7 804.544 1648.05 804.555 1648.34 804.72L1684.07 825.201C1684.43 825.404 1684.62 825.803 1684.56 826.208L1670.96 922.763C1670.92 923.092 1670.71 923.377 1670.41 923.522C1670.27 923.59 1670.12 923.624 1669.97 923.624ZM1635.39 901.561L1669.19 921.018L1682.49 826.599L1648.63 807.189L1635.39 901.561Z" fill="#252627"/>
<path d="M1731.13 877.979L1719.38 960.82L1683.64 940.233L1695.32 857.437L1731.13 877.979Z" fill="white"/>
<path d="M1719.38 961.82C1719.21 961.82 1719.04 961.775 1718.89 961.687L1683.14 941.1C1682.78 940.896 1682.59 940.498 1682.65 940.094L1694.33 857.297C1694.38 856.968 1694.58 856.684 1694.88 856.538C1695.18 856.392 1695.53 856.404 1695.82 856.569L1731.62 877.111C1731.98 877.315 1732.17 877.714 1732.12 878.119L1720.37 960.96C1720.33 961.289 1720.12 961.573 1719.82 961.719C1719.68 961.786 1719.53 961.82 1719.38 961.82ZM1684.72 939.704L1718.6 959.215L1730.04 878.509L1696.11 859.039L1684.72 939.704Z" fill="#252627"/>
</svg>
